<?xml version="1.0" encoding="UTF-8"?>
<svg id="Layer_1" data-name="Layer 1" xmlns="http://www.w3.org/2000/svg" viewBox="0 0 381.28 370.24">
  <defs>
    <style>
      .cls-1 {
        fill: #0b05e2;
      }

      .cls-2 {
        fill: #17ff46;
      }
    </style>
  </defs>
  <path class="cls-2" d="M89.63,92.57l-67.6-1.4,25.3,35.53-27.76,61.99,29.38,5.84-23.09,44.47,62.39,34.12-27.35,52.56,91.41-18.11-5.92,42.53,58.24-23.96,59.74,33.24-4.04-77.25,71.86-8.08-30.09-39.52,55.24-43.57-109.14-5.84,11.23-55.69c-20.24,3.92-40.48,7.83-60.73,11.75,13.06-27.12,26.11-54.24,39.17-81.36-20.45,5.92-40.9,11.84-61.36,17.76-5.99-5.46-69.41-63.32-76.08-69.41l-10.78,84.44Z"/>
  <g>
    <path class="cls-1" d="M84.65,103.53c-.16.21-.33.41-.48.62-.66.88-1.44,2.24-1.42,2.33.38-.61.75-1.22,1.14-1.82.25-.38.51-.76.76-1.13Z"/>
    <path class="cls-1" d="M196.69,318.4c1.59,1.21,4.39,2.57.94.46-.52-.31-1.05-.62-1.57-.94.21.16.42.32.63.48Z"/>
    <path class="cls-1" d="M250.49,203.65c.22-.3.99-.46,1.23-.3.05.03.3.74.28.9-.24.68-.89.88-1.58.79l.07-1.39ZM241.46,197.32c.04.34-.08.77.1,1.06.2.32,1.85.4-.14,1.45-.85-.46-.16-1.06-.19-1.51,0-.09-1.58-.31.22-1ZM232.31,197.79c.59.33,1.63.2,1.97,1.2-1.56-.16-2.81-1.18-4.27-1.86-.33-.16-.84.22-.86-1,.33-.35,2.65,1.37,3.16,1.65ZM225.34,193.01c.24.19.19.68.35.86.22.26,1.1.06,1.18.96-.5.16-.68-.37-1.06-.45-.45-.1-1.28.09-1.44-.05-.07-.06-.55-1.34-.93-1.59.44,0,1.6.03,1.9.26ZM211.96,184.56c.57-.09,3.88,2.01,3.44,2.37-.5.1-.84-.02-1.28-.2-.66-.27-2.78-1.37-2.16-2.16ZM204.89,178.7c.26-.78.47.13.52.15.29.14.7.18.9.34,1.67,1.31-.48,2.94-.62,2.09l-.03-.94c-1.34.82-1.08-.71-.77-1.64ZM193.22,176.38l1.04,1.35.25-.57c1.92.45,2.13,2.69,2.91,2.95.5-1.17,1.23-.69.97.5l-.79.33c.37.05.76.23,1.07.43,1.75,1.12,3.23,2.22,5.09,3.35.33.2.66.83.95.94.67.25,1.46-.02,2.16.5l.67-.59-.22,1.4.55-.16c-.39-.28-.22-.96.1-.98.64-.04.18,1.39.21,1.66l.26-.57.72.53c.24-.59.22-.66.95-.59l-.11.56,2.33.22-.07.54c1.16.4,2.76,1.87,3.06,3.21,1.57-1.03-.44-1.01-.22-1.94,1.14.43,1.11,1.06,1.07,2.19l.39-.58.72.53.24-.85c.66,1.31-.33.71-.77,1.42,2.53.03,3.84.54,4.31,3.18l1.49-1.18.2.48.5-.23-.21,1.68c.36.15.27-1.2.81-.59.55.63-.9.93-.5,1.41l.56-.15.3.68.65-1.14c.17-.09.09.99.72.53.17-.13-.98-1.1.53-.85l-.12.85c1.14.43,2,.77,2.19,2.13l.23-1.12,1.68.21-.2,1.37,1.21.28.28-.59c.75.96.65,2,2.14,1.31-1.05,1.43-.28,1.57.56.26-.03.16,0,.34.14.44,1.94,1.33,3.76,2.1,6,2.72.16.04.14.94,1.25.17l.35,1.66.67-.58,1.18,1.34.81-.59c.51,1.15,2.31,1.69,2.81.44.37.47,1.47,1,1.25-.05-1.11.03-1.58-.24-2.27-1.03l.32,1.1-.59-.81-.55.02-.24.85c-.08-1.41-1.2-1.85-2.33-2.41l-.26.57-.3-.54-.26.56c-.65-.89-1.65-2.45-2.86-1.83l-.04-.84-.82.32-.04-.84c-1.24.54-1.56-.37-2.27-1.16,1.17-.65,2.27,1.22,2.92,1.51.5.22,3.39.83,3.54.94.15.13.07.74.35.92.57.37,1.84-.4,1.75,1.17,2.09-.46,4.49,1.3,6.48,1.97l-.12.56-1.23.6c1.21.93,2.67-.03,3.48-.02.23,0,3.97,1.79,4.24,1.97.6.41.71,1.22.8,1.89l.82-.31-.31-.82c.53-.05,1.22-.13,1.41.5l-.54.58h.8s.21.8.21.8c.23.09-.09-.52.51-.61.27-.04,2.87.03,3.17.09.84.16,1.04.39.65,1.18l.84-.03-.26.56.84-.03-.73-1.09c-.42-.24-.05-.31.24-.27.95.16,3.18.61,2.74,1.82,1.37-.76,1.7.11,2.72.39,1.14.32,3.43.35,3.76,1.3l.39-.58c1.46.78,2.52,1.5,4.05.41l.07,1.67,1.11-.04.37-1.13.62,1.37.24-.84,1.58,1.05c-.12-1.9-1.55-2.08-3.15-2.11l-.05-1.39,2.71,1.56.12-.56.46.56.94-.34c-.29-.87-.5-.94-1.42-.78l.55-.44-.02-.56-.85-.55c-.2-2.07,2.04-1.6,2.07-.04,0,.39-.73.59.33,1.23.57-.31.37-.73.5-1.06.03-.07.42-.06.42-.25,0-.37-.51-.63-.04-1.09.63-.61.41.87,1.4.09l-.79,1.14,1.38-.33-.79,1.14c.25.18,1.47-.77,1.68.21-1.06-.05-.31,1.53-.47,2.34-.04.21-.47.19-.52.39-.19.86.02,2.02-.61,3.17-.45.81-2.21,2.04-2.66,3.15-1.64-.03-3.41-.55-5.01-.6-5.29-.16-10.01,1.2-15.27.8-2.5-.19-4.97-.71-7.47-.99l9.51,4.68c.66,1.79,1.39.72,2.72,1.68.85.62-.82.21.04.82.66.47,1.26.46,1.62.71.6.41,1.36,2.05,2.67,1.76l.11-.56,2.15,1.31-1.17.86-6.63-4.17.45.81-2.24-.19.48-.37c.7.2.1-.37-.09-.48-.73-.4-1.43-.92-2.06-1.25-.51-.27-1.26-.27-1.87-.59-.59-.31-2.74-2.28-3.32-1.77l-.09,1.11c-1.17-.76-2.4-1.44-3.62-2.11-1.02-.56-.53-.14-1.03-.26-.24-.06-2.63-2.82-4.31-2l.22-.52c-1.02-.43-1.9-1.09-2.88-1.61-2.36-1.24-5.3-2.01-7.83-3.2-1.68-.79-3.11-2.03-4.87-2.42-1.08-1.16,2.52.35,2.73.39.28.05.99.24.9-.25-.88-.23-2.15-.64-2.94-1.04-.32-.16-.41-.65-.67-.78-1.98-1.05-5.11-2.1-6.89-3.5-1.03-.81-.57-1.15-.64-1.19-.94-.51-3.02-.71-4.11-1.8-.52-.52-.62-1.32-1.14-1.82-.65-.63-2.34-1.25-3.19-1.92-8.34-6.51-15.94-13.07-22.73-21.34-1.21-1.47-2.22-3.13-3.54-4.53l.53-.43ZM286.99,240.95c-1.62.45-2.95-2.14-3.94-2.65-.71-.36-1.67.38-2.34-.87l.54-.44c-.83-.02-2.05-.09-2.66-.73-.09-.1.09-.43.02-.51-.19-.22-1.21-.33-.65-.87l3,1.83.26-.57c.55,1.48,4.02,1.12,4.75,2.4.18.31.03.8.17.97.12.14,1.88.35,1.68,1.38l-1.57-.77.73.8ZM256.01,236.5c-2.08-.19-.41-2.5.6-1.84.4.26.37,1.93-.6,1.84ZM245.01,233.72l.23-1.42.52-.28,2.02.45-.12,1.13.84-.03-.81.73c.66,1.33,2.1,1.3,2.61,2.54h-.99s-.16-.79-.16-.79c-1.41,2.02-1.79.29-1.46-1.31l-2.68-1.02ZM238.52,227.15c1.86.15.97,1.27.48,2.22-.2.37-.74.73-.67,1.53-4.26.13-.77-1.92-.68-2.23.12-.44-1.1-1.68.88-1.51ZM238.83,224.23c1.43-.53,2.18,1.68.82,2.13-1.51.5-1.88-1.73-.82-2.13ZM241.47,239.15l-2.21-.81-.11-1.6c2.57-.24,1.38,1.13,2.32,2.41ZM240.91,232.2l.23-1.12-1.35.89-.19-1.11c.52-.85.43.92.99.24.63-.77-1.46-1.1-1.13-1.86.02-.05.77-.17.47-.9,1.11-.18,1.51.63,1.46,1.61l.38-.85.98.25-.82.31,1,.53.16-.52.67.2.05,1.68.12-.56.85.39-.78,1.56c-.67-.16-.58-1.39-.63-1.92-.51-.02-.13.63-.51,1-.46.44-1.38.38-1.95.21ZM242.47,228.43c.65-1.08.11-2.48,1.83-2.22.16.15-.11,1.94-.26,2.3-.45,1.1-1.26.65-1.57-.08ZM246.64,235.88c-.08,2.31-1.27,1.98-2.49.51.78-.49,1.59-.86,2.49-.51ZM247.35,225.81l1.68.22-.09.85-1.52.6-.07-1.67ZM229.82,229.27c-.98-.65-.19-1.62.46-1.59,1.35.06,1.09,2.62-.46,1.59ZM227.93,221.29l1.11-.05c0,1.34.15,2.26-1.58,2.29l-.19-.84,1.51-1.03-.85-.38ZM224.4,235.29c-.99-.66-1.26-3.09,1.1-2.21,2.55.96,1.06,3.64-1.1,2.21ZM222.05,234.63c-.9.15-1.81-.67-1.73-1.6,1.18-.21,1.85.39,1.73,1.6ZM217.55,224.45c-.47.15-.96.15-1.18-.37-.15-.41-.05-1.39.25-1.71,1.35-1.47,2.52,1.25.94,2.08ZM209.96,227.99c.75.71.7,1.35,1.01,1.65.76.74,3.86.99,3.77,3.32-1.08.21-2.36-.23-3.27-.82-.9-.58-1.2-1.81-1.75-2.31-.9-.82-3.07-.92-2.76-2.97,1.26-.31,2.12.29,2.99,1.12ZM208.6,215.09c1.64-.31,1.43,1.57,1.01,1.89-1.09.82-2.96-1.52-1.01-1.89ZM199.43,214.98c.38.45.43,1.02.43,1.57-3.75.7-2.02-3.44-.43-1.57ZM197.75,219.71l-.53.58c-.32.28-3.1-1.38-2.6-2.41.37-.39,2.19.8,2.62,1.08.31.21.63.16.52.74ZM200.33,221.42c.55.24.79,1.08.94,1.15.34.17.95-.06,1.42.06.74.19,3,2.11,2.27,2.92-.86.12-1.91-.28-2.55-.86-.54-.48-.62-1.08-.86-1.33-.18-.19-1.42-.6-1.61-.77-.84-.77-1.11-1.84.39-1.17ZM201.56,206.84c2.32.01,3.14,3.93.48,3.44-.19-.04-1.52-.71-1.57-.78-.56-.88.02-2.38,1.09-2.66ZM190.58,200.75c.8.57-1.02,2.33-1.31,2-.45-.76.56-2.54,1.31-2ZM188.21,198.97c.69.63.34,2.05-1.08,1.6-.4-.13-.46-.87-1.05-.75.34-.86,1.32-1.58,2.13-.84ZM186.77,197.05c.38,1.37-.71,1.22-.94,1.45-.44.46-.23,1.59-1.96,1.69l.21-.81c-1.93-.29.19-3.12,1.16-3.16.46-.02.98.76,1.53.83ZM184.53,189.87l-.13,2.09-.72.44c-1.85.26-2.05-3.82.85-2.52ZM182.04,189.38l-1.56-.2-.19-1.68c1.34-.09,1.91.56,1.75,1.88ZM179.87,197.97c1.43-.95,2.96,1.14,2.03,2.55-1.22.57-3.32-1.69-2.03-2.55ZM175.46,199.13l1.22,2.46c-.22.29-1.44-.99-1.51-1.11-.2-.37-.26-.77-.25-1.18l.55-.16ZM169.69,173.83c1.9.74.26,3.44-1.23,2.08-.86-.79-.11-2.6,1.23-2.08ZM169.85,187.91c-1.28.14-1.24-2.74.06-1.95.17.11.6,1.87-.06,1.95ZM166.06,176.1c1.04-.09,2.52,1.9,1.62,2.58-1.72.61-3.1-1.32-1.62-2.58ZM168,186.88c-.23.31-1.62-1.22-1.87-1.32l.24-1.13c.79-.26,1.72,2.32,1.63,2.44ZM163.38,176.19l-.18,1.95c1.92-.14,3.85,3.21,2.26,4.66-2.61-.91-2.16-2.59-2.89-4.42-.29-.74-1.39-.99-.85-2.12.91.17.86.77,1.66-.07ZM159.55,170.76c.71.24.31,1.05.68,1.72.24.43,1.68,1.51,1.14,2.11-.77.87-1.75-2.09-2.28-2.33l.46-1.5ZM156.28,163.34c-1.05.22-2.32-3.09-1.23-3.84.92-.23,2.89,3.25,1.23,3.84ZM103.2,107.48l1.68.21-.31-.54c1.03.16,1.3-1.17,1.88-1.9.71-.9.9.01.47-2.1l-1.12-.09,2.39-2.89c.04-.89-.8.43-.58-.67l1.63-.9c-.57-.11-.86.34-1.29.51-.49.19-.52-.68-1.01.97-.89-.69-.32-1.45-.12-2.21.08-.33-.23-1.48.58-.04l1.22-.89-.06-.52-.54-.15.04-.51,1.55-1.92-1.37.61c-.16-1.17.37-1.22,1.35-.89-.59-1.98,1.9-2.99,2.04-4.83l.84.25c-.28-.86.47-.87.74-1.32,1.37-2.24,4.97-8.99,4.82-11.38-.03-.54-.84-1.48-.32-2.58l-1.9,1.19c1.32-1.34.31-2.37.59-3.87.43-2.31,3.45-6.68,4.58-8.92,1.1-2.19,1.98-5.25,3.39-7.32,1.52-2.23,1.92-.81,3.3-.73.36.02.75-.29,1.06-.25,1.06.13,5.5,6.37,6.34,7.62.87,1.29,1.5,2.95,2.49,4.15.07.09.32.08.46.07v.27c-2.4,1.12,1.17,1.82,1.43,2.24.05.08.52,1.69.55,1.89.35,2.3-.65,3.57-.74,5.46-.03.7.22.23.55.1l-.21,1.68,1.96.21-.26.56,1,.22.15-.48,1.07.17-.1.58c.59-.8,1.1-.24,1.62-.92l.3.55.56-.02c.41-1.37,1.81-1.09,2.71-2.07l.31.57.95-.34c-.13.44-.95.84-1.17,1.15-.74,1.02,1.71-.29,1.01,1.64l.82-.31c-.6.73-.44,1.04.07,1.81l-.54.15.32,1.1c.61-.26,1.08-.99,1.66-.2-.61.04-.42.84-.7,1.01-.43.27-1.95.18-2.57.65l1.18-3.26c-.49-.25-.73-1.29-.9-1.43-.26-.21-.99.27-.79-.87-2.15,1.79-5.87.1-4.58,4.09-.97-.48-.1-1.63-1.54-1.52-.98.07-.53.58-.69,1.33l1.36-.61c.62,1.56-.28,3.4-.29,4.66,0,.84.92,2.15.34,3.43l.65-1.13c1.49,1.38.24,3.05.31,4.57.11,2.2.79,3.23.53,5.58-.1.89.37,2.5-1.02,2.67.03-1.25.22-3.09.08-4.28-.03-.29-.21-1.54-.59-1.55.09,1.25-.23,3.12-.07,4.29.12.87.67,1.74.75,2.51.05.42-.11,5.18-.25,5.42-.05.09-.52.13-.64.33-.36.59.11,1.18.11,1.77-.02,3.04-.28,6.08-.09,9.11l-1.16-1.35.07,1.95c-.31.46-.68-2.05-.66-2.31.01-.15.92-.29.53-1.03l-.53.58-.04-.83-.67.58-1.01-.79c.13.68,1.1,1.42.08,1.95l-.66-2.05c.83-.37.76-1.3.76-2.14l-.79,1.29-1.66.2.24-.84c-.55-.45-2.47,2.06-1.99,2.59l.94-.87.06.82c.46-.23.8-.08,1.04.39-.36.57-.4,1.38-.69,1.92-.19.36-1,.62-1.02,1.48-.05,2.88,2.52,1.93,3.06,3.37.53,1.41-.83,2.4-1.71,3.15-.35-2.34-1.62-5.07-1.94-7.34-.19-1.35-.22-2.26-.44-3.59-.34-2.07.42-5,.54-7.12l.45.82c.42-.22.52-.91.71-1.08.06-.05.34.17.44.11.39-.26.65-1.1,1.72-.54l.18-2.52-.95.59c-.48-.54.02-1.09.65-1.15l-.6-1.08.84-.04v-6.97s-.54.71-.54.71c.37-1.03-.09-1.88-.12-2.77-.08-2.28.15-5.89.95-7.99.41-1.06,1.26-1.67,1.67-2.48.58-1.14-.42-1.64-.37-2.86l-.96.02.12-.56c-.77-.32-.82.57-.98.59-.65.08-1.69-.61-1.47.9l-1.13-.51.03.84-.57-.53-.22,1.54c.85.54,1.58-.23,1.9.61l2.89.73-1.21.07c-.05.58-2.13.84-1.86.06-.37.63-1.2.35-1.31.41-.11.06-1.62,1.74-1.68,1.85-.16.28.04.67,0,.78-.08.21-.71.07-.47.85.03.11.56.09.59.29.07.46-.32,1.39.07,2.05l-.56-.12v.93s-1.06.37-1.06.37c-.12.72.2.41.58.67-.73.25-1.46,1.98-1.51,2.64-.06.74.94,1.25.18,2.59-.16.27-.64.07-.83.27-.43.45-.8,3.11-1.01,3.96-.31,1.26-1.35,2.33-.48,3.65l-1.39-.22-1.83,6.77c-.59.61-.42.17-.33-.31.27-1.44.85-2.63.29-4.16-1.55.76.55-1.45.2-1.96l-.52.86-.56-.26c-.18.21.16,1.68-.78,1.42-.19-.21.65-2.2.72-2.69.08-.58.09-.8-.57-.66-.26,1.42-.81,3.19-1.36,4.51-.22.53-1.84,3.78-2.04,4.02-.45.52-1.02.46-1.2.62-.05.04.15.4.07.51-.89,1.27-4.86,2.36-6.08,3.87-.13-1.52-.03-3.08-.18-4.59-.02-.18-.45-.57-.31-.96.49-.14.2.47.3.54.38.28.84-.47.81-.87l1.13.51.21-1.96.85.52c-.56-.96.78-1.45.77-1.56,0-.18-1.11-.57-.06-1.53l-.58-.54.84.24c-.64-1.05.35-1.5.79-2.47.26-.06.9.32,1.07.17.59-.52-1-.45-.6-1.09l1.09.22c.05-.7.91-1.36,1.02-1.91.13-.63-.4-1.26-.02-2.07.53-1.14,2.2-1.81,2.33-4.11.05-.81-.61-1.89-.54-2.48.06-.52,1.77-1.54,1.05-2.4l-1.33,1.72-.17-.68c.03-.11.42-.11.52-.38.77-2.13,1.26-4.41,1.99-6.56-2.56,3.29-4.53,7.29-6.58,10.95-1.45,2.59-5.15,8.11-5.81,10.72-.17.67-.01,1.27-.09,1.93l-.77.36-.17-.83c-.98.62-.14,1.87-1.4,1.77l-.25,2.2c-.57.02-.8-1.01-.88-1.08-.65-.5-.39.71-.8.59.18-.58-1.08-1.85-1.46-1.61-.06.04.71.68-.11.56-.5-1.39-1.61-.48-1.59-1.33l-.26.57c-.36-.51-1.07-.2-1.11-.25-.07-.1-.69-2.17-.68-2.29.01-.11.86-.39.53-1.04ZM149.53,146.35c1.85-.63,4.1,4.08,2.07,5.16-2.77.94-2.95-4.86-2.07-5.16ZM150.79,157.72c-1.16.41-1.81-2.16-.92-2.47,1.16-.4,1.84,1.8.92,2.47ZM148.5,143.02c-1.24.25-2.09-3.55-1.36-4.09,1.69-1.24,2.95,3.76,1.36,4.09ZM135.12,96.92c.04-.24,1.19-.92,1.28-1.27.16-.61-.2-1.35.25-1.93l-.67.45c-1.17-.55-.76-1.45-.85-1.59-.05-.08-.66.07-.49-.44.32-.92,1.05,0,1.26-.01.36-.01.54-1.06.99.21.07.2.29,1.59.25,1.73-.12.53-.3,1.24-.45,2.11-.23,1.34-1.09,2.69-.61,4.13l-.84-.24.49.67-1.29,7.17c-.06-1.51,0-3.07.12-4.58.11-1.33.54-2.97.65-4.22.06-.69-.2-1.49-.09-2.18ZM132.37,208.57c-.28-.33-.92-.07-1.13-.59-.21-.55-.03-1.5-.35-2.22-.25-.57-.82-.15-.64-.9l.54-.16-.83-.11c-.04-2.13-1.69-4.4-2.14-6.26-.13-.54.17-1.1.09-1.59-.13-.8-.68-1.5-.6-2.36l-.54.31-.04-.84-.26.57c-.78-.17-.27-.86-.39-1.43-.3-1.4-.99-2.97-.67-4.38-.83-.24-.31.7-.94.58-.59-.11-1.59-1.04-1.05-1.62l1.02,1.07.67-.72-.84-.11.5-1.41-1.41-.11c-.55-1.62.87-2.81.72-3.59-.03-.17-.48-.11-.57-.36-.35-1.01-.17-2.27-.98-3.22l.95-.75.15.54-.54.03.02.55c1.79-.22,1.09,2.17,1.37,3.29.29,1.15,1.29,1.92.83,3.04l.8-.87.06,1.39,1.1-.32c-.11.71.34,1.41.34,2.05,0,.71-.52,1.54-.43,2.26.14,1.23,1.09,4.2,1.46,5.68,1.32,5.26,3.33,10.15,5.49,15.11l-1.11.04c.25-.55-.32-2.21-.64-2.58ZM116.47,191.74c-.63-.19-.88-.68-1.53-.22-.12-.63.08-1.47-.09-2.04-.06-.21-.56-.15-.57-.32-.04-.58.41-1.49-.09-2.35l-1.1.32.81-.59c.05-.05-1.17-1.2-.19-1.38.64-.12.71.86,1.01,1.23.21.26.73.3.8.42.23.37-.04,1.15.14,1.32l.81-.02c.27.72-.39.48-.47.71-.39,1.1.92,1.87,1.94,1.19-.06.73-1.08.73-1.3.93-.06.05.28.62-.17.8ZM112.35,182.7l1.39-.05c.11,2.27-.98,1.33-1.72.1l-.77.27-.05-1.11.71.25.09-1.11c.71,0,.28,1.6.34,1.66ZM115.06,180.91c-.38.27-1.53-2.08-2.28-1.59l-.04-.83.79.21,1.37-1.59c.65-.28,1.07.41,1.17.96l1.08-.6.03.83-.78.07c.05,1.53-.3,1.35-1.14,1.99-.32.25-.18.52-.21.54ZM116.03,170.71c-1.04-.65.27-2.78,1.27-1.82.75.72.15,2.7-1.27,1.82ZM115.26,134.35c-1.53-1.11.36-4.31,2.21-2.84,1.36,1.09-.37,4.18-2.21,2.84ZM116.72,117.81c.15-1.28,1.57-1.9,2.71-1.78-.12,1.38-1.71,1.52-2.71,1.78ZM98.27,121.94c2.35.38,1.16,2.89-1.06,2.19-.62-1-.3-2.41,1.06-2.19ZM97.33,129.82c1.22,1.15-.42,1.43-.82,2.21l-1.21-.58c-.83-1.32,1.22-2.4,2.03-1.63ZM104.32,211.75c.41.25.87.41,1.29.63.28.15.5.57.98.53-1.04,4.36-4.34,2.15-2.27-1.16ZM105.98,223.36c-2.36-.19-3.34-2.95-.94-4.03,2.2.83,2.85,2.33.94,4.03ZM102.14,203.18c1.16-1.34,1.69-.29,2.25.65.07.12.46.04.48.5.14,3.86-4.8,1.26-2.73-1.14ZM101.86,213.24l.22-1.68c1.19-.26,1.22.72,1.18,1.62l-1.39.05ZM102.5,219.47c-.16.15.03.6-.49.45-2.39-1.26.18-3.21,1.04-1.71.45.79-.11.85-.55,1.26ZM102.26,201.94c-.29.46-.95.63-1.04.78-.06.09.55.6-.31.52l.59.95-1.45.97c-1.58-.89-3.3-2.78-.89-3.94l-1.14-.65,1.12.23c-.09-3.73,4.93-1.69,3.13,1.14ZM79.76,176.48c-.12-.12-1.89.14-1.9-1.46,0-1.85,3.11-1.01,2.71.87,1.01.14.28-.63.37-1.17.14-.79.77-.92,1.49-.86l-.06,1.42-.98.43c.77.87,1.81-.13,2.79.03l.06,1.93c-1.55.15-1.62.02-2.33,1.47-2.86.92-2.01-2.51-2.16-2.67ZM76.88,170.75c-1.21.05-1.1-1.95-1.09-2.76.41.02.98-.17,1.34,0,.81.41.9,2.7-.24,2.75ZM77.87,161.81c1.57.35.13,2.13-.58,1.65-.28-.19-.66-1.93.58-1.65ZM82.89,169.88c-.22-.25-.05-1.44-1.23-1.71.85-.5,1.41-.38,2.09-1.3,1.63-.39,2,2.08,1.25,2.91-.37.41-1.87.38-2.11.1ZM83.54,145.65c.74.15,1.64-.48,2.3-.33,1.74.39,1.87,3.49.58,4.59-1.39,1.19-3.09-.41-3.05-1.84.02-.81.68-1.62.17-2.42ZM86.86,134.64c.05,0,.73.51.89.64.18.14,0,.54.4.41l.37-1.12.96.65c-.56.77-.22,2.84-1.38,3.01-1.58.22-1.93-3.57-1.25-3.59ZM88.32,168.56l-1.11-.08c-.45-.97-.37-1.9-.08-2.9,1.74-.18,1.67,1.73,1.19,2.98ZM84.33,154.29c1.36-.88,1.84.21,3.18.12l-.11.85-.7.02c.27,1.31-.16,2.06-1.18,2.82-1.51-.53-2.96-2.67-1.2-3.8ZM87.4,174.89c1.73.93,1.22,5.58-1.15,3.7-1.57-1.25-.74-4.72,1.15-3.7ZM89.83,171.95c.08.04.92,1.24.94,1.42.11,1.13-.81,2.5-2.11,2.17-.83-1.02-.86-4.66,1.17-3.59ZM89.97,183.62c1.99-.75,1.71,3.52.04,2.23-.56-.43-.73-1.97-.04-2.23ZM93.7,192.46c.94.71.89,2.26-.29,2.66-2.71.92-2.15-4.51.29-2.66ZM92.61,165.94c1.02-.36,1.71.66,1,1.2-1.06.81-2.07-.82-1-1.2ZM94.26,197.37c-.49-1.87,1.78-2.83,3.2-1.44.6.59.97,2.19.63,2.96-1.88,1.81-3.14.64-4.64-.79-.16-.86.07-.73.82-.73ZM96.49,191.46l.11,1.91-1.94-.23c-.23-1.4.44-2.29,1.82-1.68ZM94.45,216.05l.31.99,1.12-.21.02.83c-.87-.09-1.3.86-1.74,1.47-.45-.43-1.1-.77-1.05-1.48.02-.29.97-1.95,1.34-1.6ZM95.17,205.22c-.21-.56.08-1.27.65-1.46,2.13-.7,1.45,3.97-.65,1.46ZM96.73,224.75l1.22-1.31c.21-.09.08.28.26.43.61.52.78.24.78,1.31-.01,1.98-2.38,1.36-2.26-.43ZM98.49,191.62h-.81c.02-1.37-1.82-.75-1.54-2.5.04-.26,1.27-.58,1.09-1.35.32.33,1.12.41,1.33.58,1.29,1.08-.89,2.16-.07,3.27ZM97.88,173.49c-.82,3.31-5.75.91-4.24-2.06l.7-.16.22-.98.84.25c.03-.58-.37-1.29.51-1.14-.24,1.47.5.96,1.16,1.5.87.71,1.06,1.52.79,2.58ZM97.94,143.85l-.76,1.52c-2.79-.66-.95-3.8.76-1.52ZM96.1,134.72c-.63,1.08-1.3.74-2.39.91-2.59-4.24,4.65-4.81,2.39-.91ZM95.68,143.17c-3.45,3.13-5.59-2.14-2.39-2.9,1.37-.33,2.27,1.82,2.39,2.9ZM90,119.16c.64-1.34,2.28.34,2.28,1.3-1.18.52-1.81-.21-2.55-1l1.12.23-.86-.53ZM88.09,127.05l2.5.19c.32,2.39-3.09,2.51-2.5-.19ZM84.58,126.36c.2,0,2.17,1.52,1.62,2.16-.32.37-1.11-.37-1.3-.62-.11-.14-1.03-1.56-.32-1.54ZM83.83,131.84c1.44-1.17,1.31.29,2.39.29.06,0,.25-.84.94-.58-.75-.93.33-2.68,1.26-1.64.9,1-.28,1.75-.37,2.59-1.55-.33-.98.95-2.49.8l.33,1.38c-.98.31-.41-.93-.6-1.09-1.32.4-2.67-.76-1.46-1.74ZM83.34,134.47l-1.89.36c-.88-2.45,1.93-3.84,1.89-.36ZM82.34,136.76l-.61-1.22.82-.46c.14.14-.06,1.58.08,2.03.07.24.58.24.8.63.54.93.42,1.84-.67,2.23-2.79.99-5.17-4.24-.42-3.21ZM83.31,141.53c.92,1.47-.71,1.37-1.18,1.74-.31.24-1.42,1.54-1.12,1.99-1.41.88-.46-.57-.62-.84-.03-.05-.54-.18-.78-.47-2.33-2.8,3.09-3.41,3.7-2.43ZM79.99,171.73c-.23,0-1.04-.42-1.2-.6-.63-.68-.22-2.58.8-2.75,1.67-.21,2.22,2.84.41,3.35ZM77.88,145.67c1.65,1.88-.75,3.96-2.02,1.75-.9-1.57.87-3.06,2.02-1.75ZM72.81,149.42l.21-1.96c.83.34.63,1.77.25,2.38l-.67.98c.05-.49-.92-2.12.22-1.4ZM73.73,158.04l1.1-.06c-.71-.74-.68-1.5-.66-2.48,1.92-.25,2.37,1.8.66,2.64,1.48,1.69.7,2.68.34,4.59l-1.8.62c-.63-1.76.39-3.49.35-5.3ZM75.36,171.36l.25,2.24-1.53.32c-.16-.73.33-3.09,1.28-2.55ZM75.64,178.03l1.39-.06.1,2.51-1.12-.23c.1,1.95,2.33,2.11,3.08,3.78,1.23-.66.08-2.98,1.18-3.49,1.99-.91,1.79.99,3.05,1.37l.02.55c-2.05.81-.31,2.39-.37,3.79-.02.54-.71.45-.77,1.2-.05.69.76,2.32-.1,2.58-1.37.42-1.07-1.75-1.24-2.1-.26-.54-.98-.71-1.38-1.13.13,1.01,0,1.74-.73,2.53-1.18-.65-.85-1.83-1.21-2.75-.71-1.83-1.05-2.73-1.59-4.67-.17-.62-.72-1.26-.79-1.79-.02-.18,1.04-1.15.48-2.09ZM79.44,196.43l-.55.16c.03-.68-1.61-4.62.11-3.61.13.08.71,1.98.71,2.33,0,.6-1.02.29-.27,1.12ZM77.25,190.24c-.09-1.5-1.44-2.18-1.27-3.85.64.15.48.88.78,1.35.12.18.51.22.6.35.22.35.77,3.02-.1,2.15ZM80.22,201.84c-1.83-.86-.7-2.91-1.84-4.24l1.1-.47c-.59,1.7,1.21,2.79.74,4.71ZM85.05,214.47c-.28.67-1.19.67-.75,1.99l-1.64-5.04.13-1.32c.48.32,1.14.34,1.59.61.15.09.41.44.62.57-.38,1.06.47,2.19.05,3.19ZM84.22,208.11c-.41-1.14.25-2.77-.81-3.33l-.87,2.54c-1.32-1.25-1.92-2.33-1.14-4.14l.85.52-1.28-4.81c2.71-.97-.21-4.53,2.8-5.32-1.16-2.62-.72-3.38,2.06-3.93l.96,2.17,1.74-.87c1.07.63,1.28,2.07.91,3.17-.17.5-.58.2-.59,1.09,0,1.25.57.91.64,1.15.17.69-.24,1.98.24,2.88l-.77.56c-.65-.73-1.55-.62-2.45-.99l.66,1.61c2.31-.36,3.76.53,2.87,2.99,1.09.15,1.05-1.85,1.77-2,1.38.38,2.18,1.55,1.77,2.99-.45,1.58-1.14.49-1.72.41-1.68-.24-.61,2.43.83,1.85.16.4-.06,1.65-.51,1.28l-.58-.68c.27,1.09-.52.88-1.33,1.19-.31.66.59,1.32.56,1.73-.02.3-.41.63-.38.9.02.29.65.45.51.95l-.8.05-.39,1.67c-.42.1-1.24-.95-1.3-1.21-.02-.08.91-.4.79-1.4l-.6-.31c-.05-.25.17-1.08.29-1.34.21-.43.34-.38.77-.2l-.35-1.66c-.47.36-1.18.46-1.61.79-.48.36-1.02,1.78-1.72,1.54-.57-.42-1.58-1.16-1.81-1.82ZM87.76,223.01l-.18-1.1-.97.31c-1.08-3.37.91-2.06,1.55-.07.16.49.1.68-.4.86ZM89.04,220.03c-.04,1.02-3.13-1.77.19-2.09-.69.78-.33,1.17-.19,2.09ZM90.05,217.5c-.21.15-2.68-.55-2.84-.79l-.11-2.44c-.14-.55-1.79,0-1.46-2.2.11-.7.95-.56.8-1.36.41-.83,1.1.83,1.15,1.32.06.57-.33,1.46-.16,1.74.3.47,2.38,1.05,3.02,1.09.36.8.38,2.09-.4,2.63ZM241.68,306.78c-.3.2-.76,1.35-1.31,1.74-1.22.88-4.31.43-5.99.64-5.57.69-10.56,1.93-16.39,1.79-13.8-.33-33.56-10.84-44.79-18.86-.77-.55-2.23-2.16-2.87-2.41-.69-.28-1.41-.09-1.85-.32-.55-.29-1.14-2.23-2.3-2.43-1.44.69-2.91,2.32-4.59,2.78-2.4.65-8.27-.46-10.71-1.31-1.38-.48-3.68-2.22-4.76-2.39-.71-.12-1.49.13-2.11-.03-.39-.1-.64-.64-.97-.7-.43-.09-.9.33-1.53.24-1.55-.22-2.82-1.68-3.77-2.04-1-.38-2.22-.34-3.24-1.29l.21-.52c-1.74.17-2.85-1.14-3.99-2.21l1.12.09-.96-.77c-1,.95-.52.38-.83.12-.61-.5-1.31-1.07-1.38-2.01l-.56.02-.11.56c-.68-.56-1.27-1.16-1.81-1.85-1.02-1.3-3.29-3.13-4.56-4.01-.71-.49-1-1.4-1.88-1.76,1.07-.33.36-.76-.19-1.25l-.25.57c-1.62-.22-.69-2.1-2.18-2.16l.51-1.27-.69-.38-.98.31-.33-1.1,1.12.23c-.45-.71-.88-1.25-1.68-.74v1.08c-1.42-.28-.83-1.61-1.96-1.92l.19-.5-1.12-.26.23-1.12-.82.31-.05-.81c-1.33.05-2.44-2.4-3.3-3.39-.98-1.14-2.45-2.2-3.22-3.64-.21-.4.02-1.32-.58-1.83-.54-.46-1.55-.1-1.22-1.44l-1-.36.54-.44c-.32,0-.64-.15-.83-.41-.8-1.07-.27-1.11-1.49-1.9-1.17-.76-.55-2.22-.65-2.31-.05-.04-.65.07-.99-.24-.36-.32-.38-1.14-.75-1.53l.53-.43c-1.07.29-.73-.44-1.04-.77-1.05-1.11-.75-1.61-1.31-2.29-.25-.31-.61-.06-.85-.36-.62-.77-2.23-4.84-2.47-4.97l-.5.27.22-1.41-.54.31-1.11-3.3,1.27.5c0-.66.59-1.47.49-2.08-.02-.14-.96-.23-.61-.98l1.12.23c.11-.11-.99-1.47-1.32-1.62-.86-.37.46,1.21-.66.86-.17-.85.1-2.11-.12-2.87-.05-.16-1.03-.41-.33-1.85l1.08-.04.19.83c.24-.76,1.01-1,1.78-.91,0-.46-.1-1.98.23-2.2,1.15-.78,2.62,1.06,1.75,2.29-.67.95-1.4-.01-1.98-.08,0,.59.36,1.47.09,2.23-.81.2-1.64-1.55-2.25-.61l.65.92.63-.22.43.34-.23.99.42-.59.96.27c.23.57-.38.98-.44,1.34-.07.44.26.82.22,1.26-.05.53-.64.84-.37,1.54.34.9,1.67.11,2.29.51.4.26-.14,1.09.76.83l-.08-2.03,1.36-.82c.2-.32-1.06-1.13-.19-1.38.55-.16,2.05.66,2.29,1.02.3.46-.65,1.07.88,1.64l.09-1.12,1.11-.04.08,1.95-1.27-.52c-.56,1.4-1.36.18-1.43-.77-.58,1.13-1.88,1.36-1.42,2.85l1.38-.03.04.59c.45,1,.72-.86,1.06-1.09,1.34-.9,2.12,1.94,3.3,2.54.97.5,2.34-.02,3.01,1.53l-1.41-.5c-.17,1.02-.82,1.47-.45,2.81.61.26,1.59-.92,1.78-.9.18.01.32.58.53.72.24.16.63.1.89.34.38.35,1.01,1.61,1.08,2.19l.82-.31c.14.72.03.71-.52,1l.6.95c-1.76.56.21.52.44.61.14.05.1.36.36.45.36.13.89-.14,1.37.21.54.39,1.61,2.59,1.08,3.33l1.09-.48c1.09.67,1.05,1.87,1.69,2.82.26.38.63.3.65.33.09.14-.78,1.31-.74,1.83.04.71,1.9,1.37.07,1.8l-.3-.54c.36,1.25-.92,1.5-1.01,2.55.62-.55,1.64-.42,1.34-1.45l.73.8.11-.84,2.24.19.03.83c-.41.16-.25-1.07-.85-.52-.97.89.16,2.13.06,2.87-.06.49-.63.88-.67,1.24-.09.8.66,1.35-.54,2.35l1.4.22-.33-1.38.99.23.22,2.23-1.14-.79-.21,1.68.8-.3c.2.12.71,1.7.92,1.98.85,1.11,1.23,1.53,1.93,2.92.18.35.19.71.2,1.1l.23-1.12c.89.24.32.99.34,1.66l.81-.02.1,1.08h.77s.09,1.38.09,1.38l.5-1.41.85.52-.2-1.38c.75,1.76,2.1,3.06,3.41,4.44.83.87,1.6,1.59,2.47,2.55,1.31,1.45,2.56,2.54,4.66,2.07l-.33-1.38c.88.25,1.96.4,2.36,1.38.36.91-.24.85.88,2.17.84.98,1.22.64,2.16,1.07.12.06.25.5.58.66.86.44,3.76.59,4.03-.6l.51.2c.22-.76-1.01-1.11-.2-1.67.66.61,2.37.91,2.85,1.26.69.5.94,2.23,1.38,2.87.36.52,1.35.73,1.68,1.39l-.77,1.11.84.11c.1.29-1.22.45-.1.84.69.24.49-2.06,1.45-1.73l.62,1.37-1.13-.51c-.06.89-.06,1.06.76,1.37l.8-.87.49.78c.97-.1,1.83-.67,2.35.51l.7-.04-.31-.54c.72-.02,1.38.31,2.11.22.59-.07.22-.81,1.08-.64.08.02.98,1.41,1.25.08.06-.27-.73-1.8-.9-1.91-.89-.55-2.14.79-2.59-1.7-.89-.28-.39.73-.52.86-.57.53-1.79-.78-.33-1.24l-2.02-1.59,1.12.09-.88-1.08,1.11-.19c-.65-.87-1.69-.44-2.47-.68-.26-.08-3.64-3.56-2.75-4.27l-.49.23-.46-.44-.98.58-.05-.81-1.1.02c-.12-.86.7-.9,1.36-.89-.11-.94-1.26-.6-.91-1.91-.59-.04-.03.82-.28,1.09-.06.06-1.5.75-1.6.65l-.05-1.8-.88-.67.93-.33c.33.88,1.04.35,1.74.77l.11-.55c-.96.11-1.35-1.16-2.51-.47l-.34-1.09c.72-.3.47.48.76.53.23.04,1.29.14,1.2-.33-.34-.04-.78-.1-1.05-.31-.85-.68.19-.84.17-.91-.21-.74-1.44-.84-1.19-1.77l-.81.59-1.23-2.16-.8.29c.09-.95-1.5-2.66-2.22-3.27-.98-.83-1.46,0-1.47-2.19l-1.28-.21.4-.57-.31-.55c-1.01.77-.99-.25-1.14-.25-.22,0-.53.32-.78.32-.08,0-.39-.86-1.02-.52l.54-.3c-.22-1.44-.06-2.63-1.02-3.84l-1.07.3.53-.72c-.82-.99-2.17-1.97-2.91-2.95-.2-.26-.47-1.39-.62-1.51-.59-.45-.55,1.17-1.08.6-.53-.57.65-.86.49-1.25-1.27-1.78-2.89-2.62-2.83-5.08-.88-.69-.14.48-.11.7l-.55.17-.92-1.78.53-.85-.9-1.5-.51,1.13c-.21-.57-.29-1.33-.57-1.85-.36-.63-1.4-1.53-1.7-2.04-.43-.71-.15-2.37-1.59-2.1l.81-.73-.66-1.19c-.35-.18-.95.35-1.42.26-1.16-.23-1.33-2.05.02-1.63.07-.12-.33-1.69-.44-1.99-.37-1.01-2.03-3.92-2.67-4.95-.55-.88-1.52-1.75-2.28-2.47l.53-.57c-1.17-1.09-1.39-3.35-1.84-4.97-.28-.99-.5-3.12-1.4-3.88-.16-.13-.54.05-.75-.24-.42-.61-.9-2.34-1.24-3.1-.49-.05-.26.65-.18.92.19.59.73,1.09.57,1.85-.88-.21-2.18-.53-2.44-1.55-.23-.9,1.61-2.14.4-2.03.4-.49-.18-2.15-.51-2.4-.21-.16-.69.02-.75-.03-.15-.13.61-2.74.13-3.35l-.51,1.13c-.18-1.85-1.68-2.73-1.83-4.55l.52-.27c-1.08-.63-.81-2.11-1.07-2.59-.45-.84-1.3-.7-.81-2.49l.83-.17-1.11-.4-.43-3.3,1.08.28.22,2.59,1.08.94-1.35-5.8c-.55-.03-.08.67-.29,1.07-.03.05-.98.82-1.18.39l-.79-2.48.85.52c.27-1.08-1.64-1.92-1.78-2.58-.19-.86.24-1.7.21-2.52-.05-1.32-.34-3.05-.76-4.29l-.52.85c-1.23-2.18-.64-4.45-.94-6.75-.06-.51-.52-.87-.54-1.69-.03-1.24,1.03-1.51,1.05-2.01,0-.13-.5-.07-.57-.3-.2-.66.12-1.59-.65-2.16,1.19-.47.24-2.44-.11-3.35l.71-.85-1.08-1.07c1.04-.4,1.25-1.9.18-2.24l.53-.72h-.51s.2-.83.2-.83l-.83.17,1.35-1.49c-.46-.65-.11-1.77-.3-2.25-.21-.52-.93,0-.41-1.16l.57.53c-.27-1.15-.73-1.8-.4-3.05l.33,1.38c.6-.32-.18-1.12,1.08-.88l-.32-.82-.26.57-1.42-.92,1.33-1.45c-1.57-1.52-.24-1.77,1.01-2.7l-1.43-.91c.27-.66,1.07-.14,1.1-.18.1-.15-.17-1.02.79-1.29l-.84-.1-.07-1.67.85.52c-.77-1.08.72-1.79.95-2.74.18-.75-.43-1.87.54-1.78l-.85-.24-.03-.83.84-.04-.31-.66c.81-.41.8-1,.77-1.87l.57.53c.01-.67-.12-1.69.77-1.71l-.15-.54-.71-.11c.52-.26.65-.36.52-1l.56.26-.38-2.5c1.16-.34.12,1.48.9,1.63.03-1.22-.14-2.73,1.56-2.71-2.87,6.43-4.9,13.65-5.8,20.66-.08.6.18.32.51.34-.67-1.11,1.02-2.3,1.02-2.44-.15-2.96,1.25-9.49,2.27-12.63.59-1.83,2.29-5.5,3.23-7.2.44-.79,4.72-4.58,5.67-5.23.38-.26.83-.55,1.29-.62,1.08.16.8,1.99.87,2.09.17.23.94.24,1.05,1.05.11.82-1.48,3.43-2.15,4.09-1,.99-.65.69-1.45,1.8-.51.7-1.67.83-1.04,2.2l-.56-.25-.26,1.24.57.26-.26.97c-1.01.16-.6-.61-1.37-.47-.13.57-.03,1.48-.78,1.43l.76.8c.81-.35,1.52-.51,2.33-.09l.08-1.4,1.08,2.61c.04.1-1.94.9.04,1.11-.25.58-.86.09-1.04.23-.24.17-.17.85-1.07,1.07-.53.13-1.29-.16-1.48-.04-.06.04-.93,1-.99,1.08-.06.09.5.6-.32.51v.41s.84-.17.84-.17c.24.84-.46.46-.79.73-.9.75,1.33,1.91.95,3.16-1.42-.22-1.84,1.08-3.03.96-.24-.58.54-1.12.46-1.5-.07-.33-.7-.47-.56-1l.82-.31-1.68-.21c.43,1.5-.53,1.91-1.03,3.08l-1.09-.21.03.83.82-.31c.51.85-.76,2.26-.68,2.62.08.34.43,1.36.59,1.93.08.28.77.05.59.86-.02.11-.46.11-.53.37-.23.89-.04,1.44-.76,2.34l-1.52-3.28-.98,3.38c-1-.17-.23-1.67-.91-1.91-.21,6.22.05,12.46.75,18.66l.54-.3.34,1.38c1,.13.27-.15.26-.43l-.18-4.59-.46,2.25-.42-2.9.82-.2.23-1.94c.33.82.5,2.42,1.5,2.45-.6.78-.84.94-.48,1.96l.64-1.41.72.52c.07-.57-.5-.68-.6-1.24-.21-1.29.6-3.04.1-4.32l.84-.04-.1-2.51-.52,1.4-.75.18c.38,1.06-.13,2.27-1.35,2.43-.52-.43-.3-1.58-.35-1.66-.02-.02-.4.22-.56.14-.83-.44-.84-4.47-.65-5.42.18-.89.97-1.31.91-2.25.89.13.46,2.77.81,2.76l.06-1.96c.3-.03.65.05.92-.03.36-.11-.02-.68.45-.58l.17.83.65-1.14.24.82.36.26-.57.18c.59,1.2.64,2.16.44,3.45l.66-.26c.49.46.47.95,1.3.74-.56.71-.64,1.5-.48,2.4.1.59.69.46.97.99.94,1.75-.09,2.66.07,3.69.09.56.85.9.35,1.81l.55-.16-.52.99c1.03.1,1.44.14,1.7,1.21-.69.21-.34.62-.49,1.26l1.1-.32-.8.86,1.1-.32c.04.55-.18,1,.59.82.12-.17-.13-3-.24-3.34-.29-.85-.99-.76-1.33-1.33l.82-.17-.05-1.54.88,1.08c-.65-1.51.95-2.23.12-3.91.71-.16.5.1.7.53.78,1.67.37,3.86,2.54,3.8l-.22.71c.8.2.23.48.42.93.42.98,1.8,2.2-.63,1.72l.05,1.39-.3-.54c-.52.43-.7.56-1.38.34l.31.82c-1.19.18-.28-1.11-1.17-1.35-.26,1.06-.05,1.19.63,1.92l-1.97-.34.86.53-.53.71,1.08.28.08,1.07-.31-.82-.93,1.14.1-.83-.83.03.6,1.23-1.11.19.89,1.36c.68-.12-.03-1.4.78-.84.14.1.06.93,1.43.48l-.11.51-.56.05-.3,3.1-1.11-.93.49-.71h-.8c0-1.07-.4-1.24-1.22-1.73l.8-.73-1.36.08.03,1.37.57.25-.84.04c.51.63,1.04.97.92,1.91l.81-.59.09.79.73.05.75,3.27.22-1.4c.67-.67,2.78,1.44,1.62,2.17l-.18-1.11-1.1.33c-.31.67.59.5.61.68.03.51-.59,1.07-.39,1.84.16.61.84.29.79,1.2-.02.36-1.03,1.06-.79,1.84l-.57-.39.75,1.22.55-.3.19,1.39.79-1.01c-1.35-.47-.37-2.14.45-.78.66,1.08.63,2.18.76,3.38l-1.42-.78c.45.94-.48,3,.42,3.47.91.48,2.17-.63,1.19,1.76.68-.36,1.18-1.11.76-1.84l.54-.16.86.51-.54.44.85.11-.79,1.14,1.36-.61.07,1.67.95-.6,1.29.94c.19.87-.7-.01-.83.17-.49.74.88.74.61,1.37l-.55.03.51.29c-.56,1.1.79,1.36.85,1.86.08.71-1.39,2.42,1.06,2.49l-.47,1.79,1.38.12-.81.73.88.94.38-.85.73.81-.33-1.38,1.11-.04-.73,1.85c.08.56,2.94.55,2.26,1.71l1.12-.04c-.26.81-.21,1.38.5,1.93l.27-.59.69.27-.32-.96.7-.18.23.76,1.65.84-.04-1.11c.77-.15.65,1.16,1.41.02.45-.68-.48-1.06-.34-1.18l1.4.22-.6-1.09,1.01.8.66-.87.39,2.77c.31.03.87-.16,1.08,0,.3.23,1.35,3.05,1.6,3.58.11.23.44.18.54.42.35.82-.5,1.08,1.44.84-.19.82,1.06,3.73,1.54,4.23.37.39,1.14-.22.9.83-.01.06-.85.28-.53,1l-.85-.99c.19-.62.03-1.07-.5-1.47-1.35,1.99-.13,1.77.46,2.92.35.69.42,2.07,1.3,2.73l-.81.45c.41-1.06-1.03-1.77-1.14-1.98-.11-.21.15-.56.02-.77-.63-1.03-1.65-1.23-1.87-1.5-.38-.46-.06-1.17-.26-1.68-.29-.75-1.38-1.38-1.55-2.25l-.55.02.26.77-.46.2.56,1.23c-.85-.01-2.94-1.18-1.76-2.03.35-.26,2.49.75.08-1.52l.16.69-.54.16c-.7-1.59.55-3.91-.9-4.98l.06,1.39-1.2-1.36c-.52-.01-1.44.99-2.03.37-.05-.05.53-.81-.19-1.09l-.49,3.45.54,1.28-.87-.8-.67.59-.3-.55-.38.85c1.26.19,1.94.58,3.17-.07.9,1.01,2.17.64,2.25,2.25.02.35-.97.59-.52,1.95l.86.12c.35,1.03-.67.64-.51,1.27.07.28.85-.11.59.67l-.84.04c-.17.9.81.22.61,1.23-.02.08-.92.26-.52,1,2.45-1.85,1.49-.46,1.81.76.19.73,1.01,1.29.56,2.18l2.11,1.05.66-.86.6,1.09.11-.85.98.24-.31-.82.72.22c.64-1.38.85-.16.14.71l.58.26.02.56-.56.29.62,1.52c.77.17.66-.63.79-1.15l1.66-.06-1.05,1.44,1.65-.62c0,.89-2.17.96-1.88,1.6.3.66,1.02.43,1.07.47.17.13.35.6.64.89.43.43,1.16.18.9,1.28-.05.23-.88.35-.71,1.14.35.74.55,1,1.37,1.11-.71.37-.75,1.23-1.63,1.04l-.38-1.34h-1.07s0,1.07,0,1.07l-1.06.37c.41.98-.3,2.54,1.38,2.73,1.73.2.78-1.66,2.01-1.21.07-1.26-.07-2.01,1.32-2.27.1.47-.3.93-.09,1.39.4.87,2.61,1.34,1.37,2.46.64,0,1,.78,1.45,1.15.05.04.78-.16.97.7.18.87-1.3,2.95.84,2.76l-.87-.8,1.1-.33-.19,1.56-1.66.87,1.14.26.78-.75c-.04.42.82,1.39,1.16,1.07.53-.49-.47-.55-.5-.59-.09-.1.41-.47-.38-.62l1.05-1.58c.69.93.68,1,.38,2.21l.67-.58.18,1.1,1.1-.46-.54-.24.22-.73-.41.22c-.13.05-.42-.56-.43-.61-.23-.75,1.04.17.53-.57-.17-.24-.56-.41-.72-.68-.75-1.31.69-.26.65-1.28-.1-.22-.5-.04-.58-.31-.6-2.09-1.88-3.43-3.2-5.25-.71-.98-2.01-2.19-2.02-3.27,1.08.12,2.7,3.79,2.94,3.78.35-.01.46-.68.23-1.12-.15-.3-.74-.57-.98-.97-.49-.82-.67-1.34-1.24-2.22-.37-.57-1.15-2.22-1.74-1.67.42-1.1-.32-1.12-.64-1.92l-.53.58c.61-1.52-.67-2.56-1.16-.79l-1.13-.52,1.32-1.72-.81.59-.33-1.1.84-.04-.38-2.49-.53.58c-.68-1.06-.81-2.64-1.82-3.17.1-.34.25-1.33.81-.97.05.03-.18.49-.06.76.03.08.83.96.98,1.03l-.25.97.79-.3c.66.69.5,1.88.82,2.47.22.42,1.13.4,1.03,1.06l1.09-.6-.99,1.29c.36,1.03.69,1.01,1.63.64l-.19.5c.93.14.4,1.48.58,2.27.53-.25.07-.8,1.09-.6-.29,1.15,1.33,2.26,2.29,1.58.14.14-.2,1.64-.77,1.43v.27c1.09-.53,1.44,1.96,1.91,2.16.75-1.62.5-.09.63.17.19.39.67.58.68,1.04l-.54.44c1.5.09.7,1.14,1.02,1.63.22.33,2.17,1.37,2.72,1.3.27.62-1.38,1.01-.77,1.7.54.61.45-.74.81-.59-.08.7-.19,1.31.22,1.94.51.78.38-.38.55-.3.84.41.69,2.12,1.51,2.73l.1-1.12.34.47.78.03.52-1.13.34.93-.83.63.02.41c1.1.13,1.21,1.02.91,1.92l.84-.03-.1,1.12,1.25-.05-.21,1.68c1.86-.03,2.13,3.3,4.29,2.62l.04,1.12.78-.26c.31,1.17,1.22.71,1.46.85.7.39.63,1.41.7,1.47.24.23,1.22.3,1.5.83.21.07-.05-.92.67-.58-.41,1.94,2.01,2.02,1.83,3.83l.26-.57.3.54.54-.44c.88,1.5,1.89,3.43,3.77,3.62l-.23,1.4c1.23-.12,2.33.54,3.12,1.41l-.54.58.85.11-.25.84.79-.29c.17,1.19,1.33.3,2.03.88.36.29.25.88.32.96.03.03.41-.24.63-.2,1.38.28,1.41.95,2.35,1.76.37.32.97.38,1.27.65.12.11,1.72,2.62,1.75,2.78.21.85-.53,1.37-.45,1.47.02.02.35-.05.45.09.16.23.07.61.3.76.23.15.7-.04.8,0,2.24,1.14,3.83,2.25,6.32,3.25.74.3,1.15,1.11,2.06.53.44.41-1.42,1.18-1.63,1.35-.8-.17-1.15-1.88-2.53-.9.1-1.34-.8-.86-1.43-1.23-1.25-.72-2.36-1.28-3.75-1.95-.83-.4-2.27-2.07-3.06-.68l.99.24,2.31,5.49.67-.59.71.26-.5,1.28,1.58.62-.1,1.41.67-.57c.41.54.93.92,1.41,1.37.38.35.89,1.31,1.81,1.48.69.13.94-.55,1.67.85.39-.68.36-1.63,1.47-1.45l-.51.99c.9.93,2.48,1.54,2.9,2.81l.68-.3-.17-.55,1.39-.06-.26.56,1.41.37-.5,1.55,1.12.23c-.24-.5-.86-2.13.2-1.96-.13,1.39,1.31,2.17,2.48,2.72.42.2.74.01.99.1.52.19,1.24,1.53,1.1-.22.07-.07,1.53.16,1.77.27.41.19.44.7.7.75.44.09,1.06-.21,1.49.06.24.15.28.79.59,1.1.55.54,1.66.65,2.32.92.46.19-.07.91,1.31-.07.18,1.02,1.41,1.04,2.29,1.01l-.07-1.08c-.75-.42-.93.18-1.61.3l-1.8-2.7,1.11-.04-.19,1.37,1.25.53.12-1.1c.8.07,1.86-.53,2.37-.6.81-.11,1.75.82,2.63.66l-.73-.52c.19-1.78.67-.46.83-.39,1.19.49,2.84.82,4.09,1.3.19-.86-1.97-1.75-2-2l.77-.74.07.78c2.32-.15,2.27,2,4.23,2.11.17-.87-.58-.39-1.01-.79-.28-.26-.29-.84-.53-1.03-.24-.19-1.75-.51-2.19-.82l1.4.23-.88-1.08,1.1-.32-.74-.69c1.66,1.27,3.69-.45,4.81,1.36l.39-.57c-.11.93.86.34,1.44.63l.03.98.53-.86.59.81c.97.06.1-.9,1.38-.33-.71-.74-.68-1.5-.65-2.48l.72.53.53-.58c.51.51.84,1.2,1.46,1.62.6.4,1.28.32,1.57.77-.77-.07-.56.72-.87,1.07-.3.35-.86.55-1.27,1.11-.72.98-1.52,2.57-.42,3.5l-1.38.33,1.54.52.13-.57.55-.03.16.55.29-.58.81-.03c.1.9.83.96,1.58,1.34l-.54.44.59.53c-.35,2.2-2.15,1.23-3.01,1.8ZM116.9,240.53c-.17,1.03.32,1.91-.96,2.22-1.77.43-1.68-3.34.96-2.22ZM114.5,238.6c-.29,1.05-2.64.97-2.39-.77.21-1.45,3.02-1.54,2.39.77ZM113.47,231.3c-.06.03-1.3.21-1.36.18-.08-.04-.84-1.35-.88-1.52-.44-1.63.39-2.77,2.1-2.27,1.37.4,1.47,3.01.14,3.61ZM111.64,234.61l-.68,1.4c-.82-.06-1.08-.92-1-1.61l1.68.21ZM111.8,221.17c-.31-.48-1.49-1.07-1.28-1.67.23-.67,1.22-1.07,1.82-.75.06.03.99.95.94,1-.82.03-.48,1.25-1.48,1.42ZM111.25,224.45c.1.17-.04.26-.07.35-.03.09-.78.79-1.15.66-1.49-.55.53-2.86,1.22-1.01ZM110.67,227.95l-1.51-.53c-.3-2.84,3-1.57,1.51.53ZM122.69,259.54c-.07-.65-.12-1.31-.84-1.41l-.21-.5c-.23.22-.47.54-.55.85-.2.75.52,1.45-.19,1.41l-1.65-2.57c.04-.99,1.36-.75,1.06-1.73l-.55.16.38-.82,1.29.75c-.58-.03-.64,0-.53.58l1.1-.2c.94.4.24,1.41.35,1.53l.82-.31c-1.07.92.87,1.54-.46,2.25ZM120.56,250.37c-1.14-.62-.86-2.32.17-2.69,3.01-1.06,2.56,4.18-.17,2.69ZM121.02,246.3c-.17,1.03-2.63.92-2.53-.92.08-1.5,1.25-1.58,2.42-1.06.13.19.16,1.65.11,1.98ZM119.91,240.62c-1.2,1.11-3.31-.44-3.03-1.83.6-2.95,4.55-.64,3.03,1.83ZM125.49,246.04c.05,1.03.98,3.2-.83,3.11-2.38-.13-2.09-4.05.29-2.53-.06-.57-.06-.63.54-.57ZM128.43,250.7c.82,1.01.35,3.09-1.05,3.01-2.44-.13-1.66-3.88,1.05-3.01ZM134.89,259.09c.7.41,1.22,4.06-1.34,2.54-1.46-.86-.28-3.5,1.34-2.54ZM142.61,269.9l-.04-1.11c.16-.18,2.51.11,2.27,1.02l-2.23.09ZM114.57,164.5c-.8.73-1.82-.22-1.57-1.17.16-.61,1.13-.63,1.03-1.35.37-.1.23.17.42.4.6.73.8,1.17.12,2.11ZM109.91,156.58l.82-.45-.65,1.27c-1.2-.32-1.57-2.29.05-2.22l-.52.42.3.98ZM108.05,151.91c-.51-.39-.16-.42.32-.5.81-.14,1.63-.21,2.43-.44l.03.83-.84-.24c.67,2.8-.86.24-1.94.35ZM143.22,218.53c.8.58.47,1.63-.63,1.4-.77-.85-.6-2.29.63-1.4ZM170.58,217.94c.3.04.66-.15.93-.09,1.78.37,1.11,2.86,1.53,4.25l-.87-1-.06-1.2c-1.41,2.54-1.41-1.51-2.44-1.85l-.25.57-.44-.54-.51,1.13-.02-1.35c.79-.57,1.37-.03,2.13.08ZM169.65,214.15c.05-.06,1.36.2,1.59.31.37.18,1.38,1.4,1,1.81-1.38.26-2.49-.81-2.59-2.12ZM169.05,216.41c-3.63,3.08-4.08-1.34-1.14-1.56.42-.03.79.16,1.09.44l.04,1.13ZM166.54,213.69l-2.09-.45c-.73-2.7,2.87-1.46,2.09.45ZM162.74,208.57c1.49-.34,1.61.91,2.3,1.86-.15.14-2.8-.89-2.3-1.86ZM179.53,237.73l-2.93-3.5c1.65-.69,5.18,2.66,2.93,3.5ZM176.35,221.13c1.73-.32,1.35.73,1.83,1.51.13.22,1.75,1.7-.07,1.35-1.22-.23-1.18-1.93-1.76-2.86ZM189.07,246.56l1.67-.23c.38.22.4.97.68,1.18.22.16.7.04.92.31l-.26.57c-.61-.91-.99.11-1.74-.11-.3-.09-1.53-1.43-1.26-1.71ZM201.3,248.04c1.64-.59,1.98,1.99.89,2.11-.75.08-1.94-1.74-.89-2.11ZM213.06,264l.24-.57,1.73,1.32c.18,0,.58-2.26.93-2.5.25-.17.81.04,1.01-.13.13-.11,1.12-2.81,1.29-3.24l2.26.07-.26.56.84-.03-.25.84.84-.03c-.27,1.2-1.26,1.24-2.2.64l-.1,1.12-.42-.33-.25.92c-.67.32-.55-.55-.72-.54-.65.01-1.45.77-1.19,1.46l.83-.17-.89,2.13-.17-.7-.56-.11.09,1.65h.81c-.58.95-.88,1.95.37,2.48l.37-4.75c1.55-.14-.07,2.86,1.59,1.88l.32.55c.87-.35-.55-2.82,1.25-2.29.36.11.33.8.78.81-.12-.96-.18-1.52-.92-2.19l.81.2c-.01-.56,0-.58.57-.53-.68.94.59,1.45.36,2.32-.25.94-1.45-.16-1.91.67l.85.25-.51,1.27,1.09-.6.32,1.1-.82.17.57.78c-.11.87-2.91,2.05-3.64,1.93-.6-.1-3.83-3.2-4.64-3.65l.97-.18c-1.15-.39-2.62-3.41-3.27-1.68-.82-.51-.5-1.53-1.07-2.32l1.65-.49-.95.87c.08,1.1,1.44.31,2.01,1.04ZM220.1,297.19c-.56-.24-4.46-2-4-2.63.47.48,1.21.37,1.61.58.15.08.22.44.42.55.26.15,2.43.99,1.98,1.5ZM243.79,296.79l.8.3.14,2.45c-1.41-.3-1.28-1.59-.94-2.75ZM294.74,249.85l-3.15,1.52.58.67-2.01,1.83c-.29-.15-.53-.42-.88-.46-1.04-.12-6.45,2.05-8.04,2.48-12.01,3.31-23.95,4.28-36.07.6-7.02-2.13-13.65-5.3-20.52-7.97-6.67-2.59-12.17-7.26-18.26-10.71-1.37-.77-4.29-1.09-5.18-1.65-1.41-.89-1.9-3.53-5-4.46-.37-.11-2.13-.53-1.86.27.5,1.22,2.08,1.64,2.63,2.67.36.66.2,1.46.89,1.94-1.17.44-1.5-1.55-2.03-2.16-1.59-1.83-4.73-3.15-6.49-4.59-.26-.22-1.67-2.17-1.87-2.32-.12-.09-1.27.25-1.57-.35l.67-.58c-1.22-.04-2.07-1.59-2.88-1.97-.34-.16-.96-.04-1.07-.14-.15-.13-.05-1.25-.44-1.56-.33-.26-1.37-.12-1.89-.42-.62-.37-3.42-3.64-3.86-3.8-.41-.15-.81.05-1.11-.03-.48-.12-1.42-1.28-.86-1.88-1.18-.27-1.82-1.77-2.72-2.44-2.12-1.58-2.28-1.55-4.18-3.61-.52-.56-1.38-.5-1.19-1.47l-.82.31-.05-1.12c-.91.5-1.12-.33-1.97-.48l1.09-.59c-1.02-.11-2.89-1.27-2.61-2.41l-.24.85c-1.79.06-.95-1.24-1.33-1.89-.19-.33-2.07-1.54-2.41-1.17,1,.63.98,1.27.38,2.23-2.13.9-2.85-1.29-3.2-2.95l.84.1-.31-1.91.5-.32c-.58-.03-1.62-.15-2.01-.6-.48-.56.26-1.54-.87-1.8l-.25.57c-6.12-13.8-10.19-28.46-12.34-43.43-.82-5.71-1.12-11.51-1.81-17.22-.39-3.19-1.05-6.38-1.49-9.56.56-.01.3,1.08.67,1.31.2.12.71,0,1.04.16,1.52.75.54,1.52.53,2.47,0,.98,1.3,3.35-.56,3.24l.03.83.83-.03-.22,1.4,1.11.1-.8.72c.82-.19.44.56.61.86.15.26.42.23.52.43.72,1.51.88,4.07,2.17,4.85-.72.62-.43,2.85-.14,3.6.09.24,1.21.02,1.19,1.09l-.58.31.03.56.86.26c.42.75.22,1.66.43,2.42.26.94,1.34,3.5,1.89,4.21.17.22.69.57.98.66l-.19.8.82-.31-.51,1.13h.8c-.2,1.1.74,1.69.94,2.11.54,1.14.53,1.94,1.43,3.05.57.69.6.93,1.1,1.93.38.77.76,1.54,1.11,2.33l-.84-.25c.22,1.56,1.62,1.15.96,2.87l1.4.66-.79.87c.31.53,1.45.04,1.17,1.21l.81-.59c-.29,1.17.98.81,1.32,1.33.33.5.05,1.45.24,1.65.09.09,1.62.21,1.42,1.64l.53-.58.05,1.11c.35.15.28-1.2.81-.59.34.4-.35,1.26-.37,1.55-.04.57.57,1.41.51,2.07.43.05,1.04-.55,1.39.09.42.75-.82-.18-.54.58.51,1.34.67,2.26,2.06,2.7l-.54.3.6.95.53-.58c0,.37.03.75.2,1.09.93,1.81,1.88,4.36,3.94,4.88l-.54.43c.25.59,1.78,1.28,1.96,1.51.08.1.62,1.6,1.06,2.05.74.75,2.78.57,3.35,2.33.31.95-1.24-.1-1.37.33l.32.97.54-.3.05,1.11.81-.59c-.29,1.34.54,1.71.95,2.75l-1.13-.37c.35.33,2.12,3.71,2.63,3.1l-.06-1.67c.65.09.45.93.76,1.35.39.54,1.28.31.91,1.68l.73,1.62c-.06-.42.13-.87.08-1.26-.04-.35-1.13-2.26.06-2.09-.03.58.23,1.35.62,1.75.25.26,1.48-.19,1.04,1.54.73.07,1.39.49,1.32,1.34l.54-.31.4,2.77.22-1.4c1.29.68.95,2.94,1.92,3.74.16.13.58-.05.75.24.28.48.04,1.4.36,1.87.32.47.81.13.99.38.19.27.09,2.05.23,2.52,1.7-.51,2.13.37,2.94,1.47.09.13.47.15.59.33.13.19-.11.55-.09.56.23.13.91-.24,1.71.33.97.7.5,2.12,2,2.05-.48.67.7.52.36,1.64l.38-.85.18,1.11.84-.03-.26.56h.81s.09,1.36.09,1.36c1.14.18-.08-1.32.2-1.96.36-.39,2.34.61,2.29,1.3l.55-.02.25-.56c-.23,1.12.61.7,1.03,1.06,2.14,1.85.69,1.61,3.93,2.38.32.08,0,.82,1.05.22l-.26.56c1.69.1,3.22,1.81,3.49,3.49.6,0,.84-.67,1.48-.63.15,0,.17.43.4.53.88.38,1.99.88,2.87.47-.52,1.27,1.88,1.89,1.81,3.27.35-.05.77-1.45,1.35-.89.2.19-.17.92-.32,1.19-.27.49-.69.39-.72.8,1.15.24.5-.78,1.37-.61l.08.79.79.02-.25.84,1.67-.07c-.55-.75-.7-1.58-1.71-1.05l.48-1.97.32,1.1c1.6-.28.2-.85.35-1.68l1.27.51-.51,1.13,1.91-.91.05,1.12c.69.16,1.62-.4,2.21-.23.86.25,1.61,1.77,2.69,1.15l.19.83.67-.59c.71.6,1.43,1.18,2.42,1.02l-.26.56,1.38-.33-.24.84c1.13-.65,1.18.19,1.89.43.7.24,1.41-.5,1.23.84l.39-.57,1.01.8-.32-1.1,1.42.78.24-.85.64,1.92.38-.85c.41.69,1.17.35,1.63.51.26.09.23.47.41.52,1.17.29.98-1.5,1.65-.04,1.55-.98,2.3.51,3.22.83.41.14.99-.22,1.67-.11.96.16,3.79,2.08,4.52,1.66-.27-.37-.17-.93.38-.85.53.08.07.96.46,1.24.54.4,1.19.09,1.76.15.23.03.48.34.7.36.96.1,1.35-.81,2.22.83l.79-1.15c.94.62,1.39,1.43,2.7,1.29l-.25.84c.06.07,1.23-1.41,1.4.22l-.42.16c.77-.17,1.53.37,1.96.36.26,0,.09-.55.13-.58-.37.14-.96-.54-1.41-.51.29-.72.47-1.53,1.2-1.44,1.25.15.58,1.82.21,1.95.96-.82,1.22.2,1.31.22,1.5.34,2.02-1.15,3.46-.01.31.24.5.85.62.91.34.17.96-.06,1.06.02.1.07-.47.89.19,1.11.97-.81,1.91-.39,3.01-.44.44-.02.96-.38,1.37-.32.27.04.28.57.49.69,1.1.65,3.29-.81,3.61-.55.64.53-1.12.55-.37,1.13.73-.13,1.11-.38.93-1.16l.55-.02.16.55c.56-.87,1.7-.2,2.62-.67l-3.44-.48-1.08-1.01,1.24.2c.49-1.16.99-1.61,2.32-1.74l-.31-.54.98.24.27-.57-.46-.82c.72.56,1.34.61,2.24.46l-.85-.38c.63-.87,1.33-1.1,2.33-.79l-.17-.83c.88-.31.47.95,1.02,1.07.31.07.77-.33.54-.58l-.72-.52,2.24.46-1.2-2.04,2.28,1.16c.25-1-.62-.87-.81-1.14-.07-.1.39-.43-.3-.63v-1.25c.78.25,1.21,1.16,1.78,1.56.46.32,1.34.03,1.26.82l.3-.49.78-.11.05,1.12c2.34-.88,1.23,1.65-.21,1.68l1.13.37.28.67-1.06.62-.32-.97-.55.31.66,2.18-.55.59,1.15.93c-.3-1.03.71-.9,1.34-1.45l-.07,1.68Z"/>
    <path class="cls-1" d="M93.87,222.49c0,.59.36,1.47.09,2.23-.81.2-1.64-1.55-2.25-.61l.65.92.63-.22.43.34-.23.99.42-.59.96.27c.23.57-.38.98-.44,1.34-.07.44.26.82.22,1.26-.05.53-.64.84-.37,1.54.34.9,1.67.11,2.29.51.4.26-.14,1.09.76.83l-.08-2.03,1.36-.82c.2-.32-1.06-1.13-.19-1.38.55-.16,2.05.66,2.29,1.02.3.46-.65,1.07.88,1.64l.09-1.12,1.11-.04.08,1.95-1.27-.52c-.56,1.4-1.36.18-1.43-.77-.58,1.13-1.88,1.36-1.42,2.85l1.38-.03.04.59c.45,1,.72-.86,1.06-1.09,1.34-.9,2.12,1.94,3.3,2.54.97.5,2.34-.02,3.01,1.53l-1.41-.5c-.17,1.02-.82,1.47-.45,2.81.61.26,1.59-.92,1.78-.9s.32.58.53.72c.24.16.63.1.88.34.38.35,1.01,1.61,1.08,2.19l.82-.31c.14.72.03.71-.52,1l.6.95c-1.76.56.21.52.44.61.14.05.1.36.36.45.36.13.89-.14,1.37.21.54.39,1.61,2.59,1.08,3.33l1.09-.48c1.09.67,1.05,1.87,1.69,2.82.26.38.63.3.65.33.09.14-.78,1.31-.75,1.83.04.71,1.9,1.37.07,1.8l-.3-.54c.36,1.25-.92,1.5-1.01,2.55.62-.55,1.64-.42,1.34-1.45l.73.8.11-.84,2.24.19.03.83c-.41.16-.25-1.07-.85-.52-.97.89.16,2.13.06,2.87-.06.49-.63.88-.67,1.24-.09.8.66,1.35-.54,2.35l1.4.22-.33-1.38.99.23.22,2.23-1.14-.79-.21,1.68.8-.3c.2.12.71,1.7.92,1.98.85,1.11,1.23,1.53,1.93,2.92.18.35.19.71.2,1.1l.23-1.12c.89.24.32.99.34,1.66l.81-.02.1,1.08h.77s.09,1.38.09,1.38l.5-1.41.85.52-.2-1.38c.75,1.76,2.1,3.06,3.41,4.44.83.87,1.6,1.59,2.47,2.55,1.31,1.45,2.56,2.54,4.66,2.07l-.33-1.38c.88.25,1.96.4,2.36,1.38.36.91-.24.85.88,2.17.84.98,1.22.64,2.16,1.07.13.06.25.5.58.66.86.44,3.76.59,4.03-.6l.51.2c.22-.76-1.01-1.11-.2-1.67.66.61,2.37.91,2.85,1.26.69.5.94,2.23,1.38,2.87.36.52,1.35.73,1.68,1.39l-.77,1.11.84.11c.1.29-1.22.45-.1.84.69.24.49-2.06,1.45-1.73l.62,1.37-1.13-.51c-.06.89-.06,1.06.76,1.37l.8-.87.49.78c.97-.1,1.83-.67,2.35.51l.7-.04-.3-.54c.71-.02,1.38.31,2.11.22.59-.07.22-.81,1.08-.64.08.02.98,1.41,1.25.08.06-.27-.73-1.8-.9-1.91-.89-.55-2.14.79-2.59-1.7-.89-.28-.39.73-.52.86-.57.53-1.79-.78-.33-1.24l-2.02-1.59,1.12.09-.88-1.08,1.11-.19c-.65-.87-1.69-.44-2.46-.68-.26-.08-3.64-3.56-2.75-4.27l-.49.23-.46-.44-.98.58-.05-.81-1.1.02c-.12-.86.7-.9,1.36-.89-.11-.94-1.26-.6-.91-1.91-.59-.04-.03.82-.28,1.09-.06.06-1.5.75-1.6.65l-.06-1.8-.88-.67.93-.33c.33.88,1.04.35,1.74.77l.11-.55c-.96.11-1.35-1.16-2.51-.47l-.34-1.09c.72-.3.48.48.76.53.23.04,1.29.14,1.2-.33-.34-.04-.78-.1-1.05-.31-.85-.68.19-.84.17-.91-.21-.74-1.44-.84-1.19-1.77l-.81.59-1.23-2.16-.8.29c.09-.95-1.5-2.66-2.22-3.27-.98-.83-1.46,0-1.47-2.19l-1.28-.21.4-.57-.31-.55c-1.01.77-.99-.25-1.14-.25-.22,0-.53.32-.78.32-.08,0-.39-.86-1.02-.52l.54-.3c-.22-1.44-.06-2.63-1.02-3.84l-1.07.3.53-.72c-.82-.99-2.17-1.97-2.91-2.95-.2-.26-.47-1.39-.62-1.51-.59-.45-.55,1.17-1.08.6s.65-.86.49-1.25c-1.27-1.78-2.89-2.62-2.83-5.08-.88-.69-.14.48-.11.7l-.55.17-.92-1.78.53-.85-.9-1.5-.51,1.13c-.21-.57-.29-1.33-.57-1.85-.36-.63-1.4-1.53-1.7-2.04-.43-.71-.15-2.37-1.59-2.1l.81-.73-.66-1.19c-.35-.18-.95.35-1.42.26-1.16-.23-1.33-2.05.02-1.63.07-.12-.33-1.69-.44-1.99-.37-1.01-2.03-3.92-2.67-4.95-.55-.88-1.52-1.75-2.28-2.47l.53-.57c-1.17-1.09-1.39-3.35-1.84-4.97-.28-.99-.5-3.12-1.4-3.88-.16-.13-.54.05-.75-.24-.42-.61-.9-2.34-1.24-3.1-.49-.05-.26.65-.18.92.19.59.73,1.09.57,1.85-.88-.21-2.18-.53-2.44-1.55-.23-.9,1.62-2.14.4-2.03.4-.49-.18-2.15-.51-2.4-.21-.16-.69.02-.75-.03-.15-.13.61-2.74.13-3.35l-.51,1.13c-.18-1.85-1.68-2.73-1.83-4.55l.52-.27c-1.08-.63-.81-2.11-1.07-2.59-.45-.84-1.3-.7-.81-2.49l.83-.17-1.11-.4-.43-3.3,1.08.28.22,2.59,1.08.94-1.35-5.8c-.55-.03-.08.67-.29,1.07-.03.05-.98.82-1.18.39l-.79-2.48.85.52c.27-1.08-1.64-1.92-1.78-2.58-.19-.86.24-1.7.21-2.52-.05-1.32-.34-3.05-.76-4.29l-.52.85c-1.23-2.18-.64-4.45-.94-6.75-.06-.51-.52-.87-.54-1.69-.03-1.24,1.03-1.51,1.05-2.01,0-.13-.5-.07-.57-.3-.2-.66.12-1.59-.65-2.16,1.19-.47.24-2.44-.11-3.35l.71-.85-1.08-1.07c1.04-.4,1.25-1.9.18-2.24l.53-.72h-.51s.2-.83.2-.83l-.83.17,1.35-1.49c-.46-.65-.11-1.77-.3-2.25-.21-.52-.93,0-.41-1.16l.57.53c-.27-1.15-.73-1.8-.4-3.05l.33,1.38c.6-.32-.18-1.12,1.08-.88l-.32-.82-.26.57-1.42-.92,1.33-1.45c-1.57-1.52-.24-1.77,1.01-2.7l-1.43-.91c.27-.66,1.07-.14,1.1-.18.1-.15-.17-1.02.79-1.29l-.84-.1-.07-1.67.85.52c-.77-1.08.72-1.79.95-2.74.18-.75-.43-1.87.54-1.78l-.85-.24-.03-.83.84-.04-.31-.66c.81-.41.8-1,.77-1.87l.57.53c.01-.67-.12-1.69.77-1.71l-.15-.54-.71-.11c.52-.26.65-.36.52-1l.56.26-.38-2.5c1.16-.34.12,1.48.9,1.63.03-1.22-.14-2.73,1.56-2.71-2.87,6.43-4.9,13.65-5.8,20.66-.08.6.18.32.51.34-.67-1.11,1.02-2.3,1.02-2.44-.15-2.96,1.25-9.49,2.27-12.63.59-1.83,2.29-5.5,3.23-7.2.44-.79,4.72-4.58,5.67-5.23.38-.26.83-.55,1.29-.62,1.08.16.8,1.99.87,2.09.17.23.94.24,1.05,1.05s-1.48,3.43-2.15,4.09c-1,.99-.65.69-1.45,1.8-.51.7-1.67.83-1.04,2.2l-.56-.25-.26,1.24.57.26-.26.97c-1.01.16-.6-.61-1.37-.47-.13.57-.03,1.48-.78,1.43l.76.8c.81-.35,1.52-.51,2.33-.09l.08-1.4,1.08,2.61c.04.1-1.94.9.04,1.11-.25.58-.86.09-1.04.23-.24.17-.17.85-1.07,1.07-.54.13-1.29-.16-1.48-.04-.06.04-.93,1-.99,1.08-.06.09.5.6-.32.51v.41s.84-.17.84-.17c.24.84-.46.46-.79.73-.9.75,1.33,1.91.95,3.16-1.42-.22-1.84,1.08-3.03.96-.24-.58.54-1.12.46-1.5-.07-.33-.7-.47-.56-1l.82-.31-1.68-.21c.43,1.5-.53,1.91-1.03,3.08l-1.09-.21.03.83.82-.31c.51.85-.76,2.26-.68,2.62s.43,1.36.59,1.93c.08.28.77.05.59.86-.02.11-.46.11-.53.37-.23.89-.04,1.44-.76,2.34l-1.52-3.28-.98,3.38c-1-.17-.23-1.67-.91-1.91-.21,6.22.05,12.46.75,18.66l.54-.3.34,1.38c1,.13.27-.15.26-.43l-.18-4.59-.46,2.25-.42-2.9.82-.2.23-1.94c.33.82.5,2.42,1.5,2.45-.6.78-.84.94-.48,1.96l.64-1.41.72.52c.07-.57-.5-.68-.6-1.24-.21-1.29.6-3.04.09-4.32l.84-.04-.1-2.51-.52,1.4-.75.18c.38,1.06-.13,2.27-1.35,2.43-.52-.43-.3-1.58-.35-1.66-.02-.02-.4.22-.56.14-.83-.44-.84-4.47-.65-5.42.18-.89.97-1.31.91-2.25.89.13.46,2.77.8,2.76l.06-1.96c.3-.03.65.05.92-.03.36-.11-.02-.68.45-.58l.17.83.65-1.14.24.82.36.26-.57.18c.59,1.2.64,2.16.44,3.45l.66-.26c.49.46.47.95,1.3.74-.56.71-.64,1.5-.48,2.4.1.59.69.46.97.99.94,1.75-.09,2.66.07,3.69.09.56.85.9.35,1.81l.55-.16-.52.99c1.03.1,1.44.14,1.7,1.21-.69.21-.34.62-.49,1.26l1.1-.32-.8.86,1.1-.32c.04.55-.18,1,.59.82.12-.17-.13-3-.24-3.34-.29-.85-.99-.76-1.33-1.33l.82-.17-.05-1.54.87,1.08c-.65-1.51.95-2.23.12-3.91.71-.16.5.1.7.53.78,1.67.37,3.86,2.54,3.8l-.22.71c.8.2.23.48.42.93.42.98,1.8,2.2-.63,1.72l.05,1.39-.3-.54c-.52.43-.7.56-1.38.34l.31.82c-1.19.18-.28-1.11-1.17-1.35-.26,1.06-.05,1.19.63,1.92l-1.97-.34.86.53-.53.71,1.08.28.08,1.07-.31-.82-.93,1.14.1-.83-.83.03.6,1.23-1.11.19.89,1.36c.68-.12-.03-1.4.78-.84.14.09.06.93,1.43.48l-.11.51-.56.05-.3,3.1-1.11-.93.49-.71h-.8c0-1.07-.4-1.24-1.22-1.73l.8-.73-1.36.08.03,1.37.57.25-.84.04c.51.63,1.04.97.92,1.91l.81-.59.09.79.73.05.75,3.27.22-1.4c.67-.67,2.78,1.44,1.62,2.17l-.18-1.11-1.1.33c-.31.67.59.5.61.68.03.51-.59,1.07-.39,1.84.16.61.84.29.79,1.2-.02.36-1.03,1.06-.79,1.84l-.57-.39.75,1.22.55-.3.19,1.39.79-1.01c-1.35-.47-.37-2.14.45-.78.66,1.08.63,2.18.76,3.38l-1.42-.78c.45.94-.48,3,.42,3.47s2.17-.63,1.19,1.76c.68-.36,1.18-1.11.76-1.84l.54-.16.86.51-.54.44.85.11-.79,1.14,1.37-.61.07,1.67.95-.6,1.29.94c.19.87-.7-.01-.83.17-.49.74.88.74.61,1.37l-.55.03.51.29c-.56,1.1.79,1.36.85,1.86.08.71-1.39,2.42,1.06,2.49l-.47,1.79,1.38.12-.81.73.88.94.38-.85.73.81-.33-1.38,1.11-.04-.73,1.85c.08.56,2.94.55,2.26,1.71l1.12-.04c-.26.81-.21,1.38.5,1.93l.27-.59.69.27-.32-.96.7-.18.23.76,1.65.84-.04-1.11c.77-.15.65,1.16,1.41.02.45-.68-.48-1.06-.34-1.18l1.4.22-.6-1.09,1.01.8.66-.87.39,2.77c.31.03.87-.16,1.08,0,.3.23,1.35,3.05,1.6,3.58.11.23.44.18.54.42.35.82-.5,1.08,1.44.84-.19.82,1.06,3.73,1.54,4.23.37.39,1.14-.22.9.83-.01.06-.85.28-.53,1l-.85-.99c.19-.62.03-1.07-.5-1.47-1.35,1.99-.13,1.77.46,2.92.35.69.42,2.07,1.3,2.73l-.81.45c.41-1.06-1.03-1.77-1.14-1.98s.15-.56.02-.77c-.63-1.03-1.65-1.23-1.87-1.5-.38-.46-.06-1.17-.26-1.68-.29-.75-1.38-1.38-1.55-2.25l-.55.02.26.77-.46.2.56,1.23c-.85-.01-2.94-1.18-1.76-2.03.35-.26,2.49.75.08-1.52l.16.69-.54.16c-.7-1.59.55-3.91-.9-4.98l.06,1.39-1.2-1.36c-.52-.01-1.44.99-2.03.37-.05-.05.53-.81-.19-1.09l-.49,3.45.54,1.28-.87-.8-.67.59-.3-.55-.38.85c1.26.19,1.94.58,3.17-.07.9,1.01,2.17.64,2.24,2.25.02.35-.97.59-.52,1.95l.86.12c.35,1.03-.67.64-.51,1.27.07.28.85-.11.59.67l-.84.04c-.17.9.81.22.61,1.23-.02.08-.92.26-.52,1,2.45-1.85,1.49-.46,1.81.76.19.73,1.01,1.29.56,2.18l2.11,1.05.66-.86.6,1.09.11-.85.98.24-.31-.82.72.22c.64-1.38.85-.16.14.71l.58.26.02.56-.55.29.62,1.52c.77.17.66-.63.79-1.15l1.67-.06-1.05,1.44,1.65-.62c0,.89-2.17.96-1.88,1.6s1.02.43,1.07.47c.17.13.35.6.64.89.43.43,1.16.18.9,1.28-.05.23-.88.35-.71,1.14.35.74.55,1,1.36,1.11-.71.37-.75,1.23-1.63,1.04l-.38-1.34h-1.07s0,1.07,0,1.07l-1.06.37c.41.98-.3,2.54,1.38,2.73s.78-1.66,2.01-1.21c.07-1.26-.07-2.01,1.32-2.27.1.47-.3.93-.09,1.39.4.87,2.61,1.34,1.37,2.46.64,0,1,.78,1.45,1.15.05.04.78-.16.97.7s-1.3,2.95.84,2.76l-.87-.8,1.1-.33-.19,1.56-1.66.87,1.14.26.78-.75c-.04.42.82,1.39,1.16,1.07.53-.49-.47-.55-.5-.59-.09-.1.41-.47-.38-.62l1.05-1.58c.69.93.68,1,.38,2.21l.67-.58.18,1.1,1.1-.46-.54-.24.22-.73-.41.22c-.13.05-.42-.56-.43-.61-.23-.75,1.04.17.53-.57-.17-.24-.56-.41-.72-.68-.75-1.31.69-.26.65-1.28-.1-.22-.5-.04-.58-.31-.6-2.09-1.88-3.43-3.2-5.25-.71-.98-2.01-2.19-2.02-3.27,1.08.12,2.7,3.79,2.94,3.78.35-.01.47-.68.23-1.12-.15-.3-.74-.57-.98-.97-.49-.82-.67-1.34-1.24-2.22-.37-.57-1.15-2.22-1.74-1.67.42-1.1-.32-1.12-.64-1.92l-.53.58c.61-1.52-.67-2.56-1.16-.79l-1.13-.52,1.32-1.72-.81.59-.33-1.1.84-.04-.38-2.49-.53.58c-.68-1.06-.81-2.64-1.82-3.17.1-.34.25-1.33.81-.97.05.03-.18.49-.06.76.03.08.83.96.98,1.03l-.25.97.79-.3c.66.69.5,1.88.82,2.47.22.42,1.13.4,1.03,1.06l1.09-.6-.99,1.29c.36,1.03.69,1.01,1.63.64l-.19.5c.93.14.4,1.48.58,2.27.53-.25.07-.8,1.09-.6-.29,1.15,1.33,2.26,2.29,1.58.14.14-.2,1.64-.77,1.43v.27c1.09-.53,1.44,1.96,1.91,2.16.75-1.62.5-.09.63.17.19.39.67.58.68,1.04l-.54.44c1.5.09.7,1.14,1.02,1.63.22.33,2.17,1.37,2.72,1.3.27.62-1.38,1.01-.77,1.7.54.61.45-.74.81-.59-.08.7-.19,1.31.22,1.94.51.78.38-.38.55-.3.83.41.69,2.12,1.51,2.73l.1-1.12.34.47.78.03.52-1.13.34.93-.83.63.02.41c1.1.13,1.21,1.02.91,1.92l.84-.03-.1,1.12,1.25-.05-.21,1.68c1.86-.03,2.13,3.3,4.29,2.62l.04,1.12.78-.26c.31,1.17,1.22.71,1.46.85.7.39.63,1.41.7,1.47.24.23,1.22.3,1.5.83.21.07-.05-.92.67-.58-.41,1.94,2.01,2.02,1.83,3.83l.26-.57.3.54.54-.44c.88,1.5,1.89,3.43,3.77,3.62l-.23,1.4c1.23-.12,2.33.54,3.12,1.41l-.54.58.85.11-.25.84.79-.29c.17,1.19,1.33.3,2.03.88.36.29.25.88.33.96.03.03.41-.24.63-.2,1.38.28,1.41.95,2.35,1.76.37.32.97.38,1.27.65.12.11,1.72,2.62,1.75,2.78.21.85-.53,1.37-.45,1.47.02.02.35-.05.45.09.16.23.07.61.3.76s.7-.04.8,0c2.24,1.14,3.83,2.25,6.32,3.25.74.3,1.15,1.11,2.06.53.44.41-1.42,1.18-1.63,1.35-.8-.17-1.15-1.88-2.53-.9.1-1.34-.8-.86-1.43-1.23-1.25-.72-2.36-1.28-3.75-1.95-.83-.4-2.27-2.07-3.06-.68l.99.24,2.31,5.49.67-.59.71.26-.5,1.28,1.58.62-.1,1.41.67-.57c.41.54.93.92,1.41,1.37.38.35.89,1.31,1.81,1.48.69.13.94-.55,1.67.85.39-.68.36-1.63,1.47-1.45l-.51.99c.9.93,2.48,1.54,2.9,2.81l.68-.3-.17-.55,1.39-.06-.26.56,1.41.37-.5,1.55,1.12.23c-.24-.5-.86-2.13.2-1.96-.13,1.39,1.31,2.17,2.48,2.72.42.2.74.01.99.1.52.19,1.24,1.53,1.1-.22.07-.07,1.53.16,1.77.27.41.19.44.7.7.75.44.09,1.06-.21,1.49.06.24.15.28.79.59,1.1.55.54,1.66.65,2.32.92.46.19-.07.91,1.31-.07.18,1.02,1.41,1.04,2.29,1.01l-.07-1.08c-.75-.42-.93.18-1.61.3l-1.8-2.7,1.11-.04-.19,1.37,1.25.53.12-1.1c.8.07,1.86-.53,2.37-.6.81-.11,1.75.82,2.63.66l-.73-.52c.19-1.78.67-.46.83-.39,1.19.49,2.84.82,4.09,1.3.19-.86-1.97-1.75-2-2l.77-.74.07.78c2.32-.15,2.27,2,4.23,2.11.17-.87-.58-.39-1.01-.79-.28-.26-.29-.84-.53-1.03s-1.75-.51-2.19-.82l1.4.23-.88-1.08,1.1-.32-1.15-1.07c1.72,1.98,4.01-.22,5.23,1.74l.39-.57c-.11.93.86.34,1.44.63l.03.98.53-.86.59.81c.97.06.1-.9,1.37-.33-.71-.74-.68-1.5-.65-2.48l.72.53.53-.58c.51.51.84,1.2,1.46,1.62s1.28.32,1.56.77c-.77-.07-.56.72-.87,1.07s-.86.55-1.27,1.11c-.72.98-1.52,2.57-.42,3.5l-1.38.33,1.54.52.13-.57.55-.03.16.55.29-.58.81-.03c.1.9.83.96,1.58,1.34l-.54.44.59.53c-.35,2.2-2.15,1.23-3,1.8-.3.2-.76,1.35-1.31,1.74-1.22.88-4.31.43-5.99.64-5.57.69-10.56,1.93-16.39,1.79-13.8-.33-33.56-10.84-44.79-18.86-.77-.55-2.23-2.16-2.87-2.41-.69-.28-1.41-.09-1.85-.32-.55-.29-1.14-2.23-2.3-2.43-1.44.69-2.91,2.32-4.59,2.78-2.4.65-8.27-.46-10.71-1.31-1.38-.48-3.68-2.22-4.76-2.39-.71-.12-1.49.13-2.11-.03-.39-.1-.64-.64-.97-.7-.43-.09-.9.33-1.53.24-1.55-.22-2.82-1.68-3.77-2.04-1-.38-2.22-.34-3.24-1.29l.22-.52c-1.74.17-2.85-1.14-3.99-2.21l1.12.09-.96-.77c-1,.95-.52.38-.83.12-.61-.5-1.31-1.07-1.38-2.01l-.56.02-.11.56c-.68-.56-1.27-1.16-1.81-1.85-1.02-1.3-3.29-3.13-4.56-4.01-.71-.49-1-1.4-1.88-1.76,1.07-.33.36-.76-.19-1.25l-.25.57c-1.61-.22-.69-2.1-2.18-2.16l.51-1.27-.69-.38-.98.31-.33-1.1,1.12.23c-.45-.71-.88-1.25-1.68-.74v1.08c-1.42-.28-.83-1.61-1.96-1.92l.19-.5-1.12-.26.23-1.12-.82.31-.05-.81c-1.33.05-2.44-2.4-3.3-3.39-.98-1.14-2.45-2.2-3.23-3.64-.21-.4.02-1.32-.58-1.83-.54-.46-1.55-.1-1.22-1.44l-1-.36.54-.43c-.32,0-.64-.15-.83-.41-.8-1.07-.27-1.11-1.49-1.9s-.55-2.22-.65-2.31c-.05-.04-.65.07-.99-.24s-.38-1.14-.75-1.53l.53-.43c-1.07.29-.73-.44-1.04-.77-1.05-1.11-.75-1.61-1.31-2.29-.25-.31-.61-.06-.85-.36-.62-.77-2.23-4.84-2.47-4.97l-.5.27.22-1.41-.54.31-1.11-3.3,1.27.5c0-.66.59-1.47.49-2.08-.02-.14-.96-.23-.61-.98l1.12.23c.11-.1-.99-1.47-1.32-1.62-.86-.37.46,1.21-.66.86-.17-.85.1-2.11-.12-2.87-.05-.16-1.03-.41-.33-1.85l1.08-.04.19.83c.24-.76,1.01-1,1.78-.91,0-.46-.1-1.98.23-2.2,1.15-.78,2.62,1.06,1.75,2.29-.67.95-1.4-.01-1.98-.08ZM104.53,173.75c-.29-.52.62-1.07.42-1.63-.66.58-1.49,1.72-1.29,2.56l.81-.59.05,1.11.54-1.01c.11-.43-.5-.38-.53-.45ZM109.28,175.85l-.67-2.76-.52.86-.57-.53c-.28.73-.84.97-.45,1.93l2.21.5ZM94.13,230.34c-.06-.09-.86-.41-1.07-.57-.76,1.26,0,1.44.09,2.11.08.56-.42.88-.42,1.11,0,.31.74,1.47,1.21,1.48.78.16-.17-1.56.35-2.07l-.59-.28c.48-.35.75-1.28.43-1.78ZM139.12,233.01c-.59-.6-1.34.11-1.02.52.14.18,1.65.64,1.23,1.79,1.48.99.1-2-.21-2.3ZM157.9,253.93c-.21-1.5-2.44-.33-2.25.78.01.08.97.6.9,1.24-.55.04-1.01-.18-.81.59l1.94-.08-.59-.81c.54.02.94.01.82-.59l.57.53-.33-1.38.84.11-.44-.62-.65.23ZM161.15,259.39l-.04-.84-.51.7c.53.66,1.41.83.89,1.8.71.33.47-.59.69-.6s.56.28.81.27c.08,0,.31-.86.96-.61.18-1.53-1.76-1.18-2.8-.71Z"/>
    <path class="cls-1" d="M263.6,248.58c.96-.82,1.22.2,1.31.22,1.5.34,2.02-1.15,3.46-.01.31.24.5.85.62.91.34.17.96-.06,1.06.02.1.07-.47.89.19,1.11.97-.81,1.91-.39,3.01-.44.44-.02.96-.38,1.37-.32.27.04.28.57.49.69,1.1.65,3.29-.81,3.61-.55.64.53-1.12.55-.37,1.13.73-.13,1.11-.38.93-1.16l.55-.02.16.55c.56-.87,1.7-.2,2.62-.67l-3.44-.48-1.08-1.01,1.24.2c.49-1.16.99-1.61,2.32-1.74l-.31-.54.98.24.27-.57-.46-.82c.72.56,1.34.61,2.24.46l-.85-.38c.63-.87,1.33-1.1,2.33-.79l-.17-.83c.88-.31.47.95,1.02,1.07.31.07.77-.33.54-.58l-.72-.52,2.24.46-1.2-2.04,2.28,1.16c.25-1-.62-.87-.81-1.14-.07-.1.39-.43-.3-.63v-1.25c.78.25,1.21,1.16,1.78,1.56.46.32,1.34.03,1.26.82l.3-.49.78-.11.05,1.12c2.34-.88,1.23,1.65-.21,1.68l1.13.37.28.67-1.06.62-.32-.97-.55.31.66,2.18-.55.59,1.15.93c-.3-1.03.71-.9,1.34-1.45l-.07,1.68-3.15,1.52.58.67-2.01,1.83c-.29-.15-.53-.42-.88-.46-1.04-.12-6.45,2.05-8.04,2.48-12.01,3.31-23.95,4.28-36.07.6-7.02-2.13-13.65-5.3-20.52-7.97s-12.17-7.26-18.26-10.71c-1.37-.77-4.29-1.09-5.18-1.65-1.41-.89-1.9-3.53-5-4.46-.37-.11-2.13-.53-1.86.27.5,1.22,2.08,1.64,2.63,2.67.36.66.2,1.46.89,1.94-1.17.44-1.5-1.55-2.03-2.16-1.59-1.84-4.73-3.15-6.49-4.59-.26-.22-1.67-2.17-1.87-2.32-.12-.09-1.27.25-1.57-.35l.67-.58c-1.22-.04-2.07-1.59-2.88-1.97-.34-.16-.96-.04-1.07-.14-.15-.13-.05-1.25-.44-1.56-.33-.26-1.37-.12-1.89-.42-.62-.37-3.42-3.64-3.86-3.8-.41-.15-.81.05-1.11-.03-.48-.12-1.42-1.28-.86-1.88-1.18-.27-1.82-1.77-2.72-2.44-2.12-1.58-2.28-1.55-4.18-3.61-.52-.56-1.38-.5-1.19-1.47l-.82.31-.05-1.12c-.91.5-1.12-.33-1.97-.48l1.09-.59c-1.02-.11-2.89-1.27-2.61-2.41l-.24.85c-1.79.06-.95-1.24-1.33-1.89-.19-.33-2.07-1.54-2.41-1.17,1,.63.98,1.27.38,2.23-2.13.9-2.85-1.29-3.2-2.95l.84.1-.31-1.91.5-.32c-.58-.03-1.62-.15-2.01-.6-.48-.56.26-1.54-.87-1.8l-.26.57c-6.12-13.8-10.19-28.46-12.34-43.43-.82-5.71-1.12-11.51-1.81-17.22-.39-3.19-1.05-6.38-1.49-9.56.56-.01.3,1.08.67,1.31.2.12.71,0,1.04.16,1.52.75.54,1.52.53,2.47s1.3,3.35-.56,3.24l.03.83.83-.03-.22,1.4,1.11.1-.8.72c.82-.19.44.56.61.86.15.26.42.23.52.43.72,1.51.88,4.07,2.17,4.85-.72.62-.43,2.85-.14,3.6.09.24,1.21.02,1.19,1.09l-.58.31.03.56.86.26c.42.75.22,1.66.43,2.42.26.94,1.34,3.5,1.89,4.21.17.22.69.57.98.66l-.19.8.82-.31-.51,1.13h.8c-.2,1.1.74,1.69.94,2.11.54,1.14.52,1.94,1.43,3.05.57.69.6.93,1.1,1.93.38.77.76,1.54,1.12,2.33l-.84-.25c.22,1.56,1.62,1.15.96,2.87l1.4.66-.79.87c.31.53,1.45.04,1.17,1.21l.81-.59c-.29,1.17.98.81,1.32,1.33s.05,1.45.24,1.65c.09.09,1.62.21,1.42,1.64l.53-.58.05,1.11c.35.15.28-1.2.81-.59.34.4-.35,1.26-.36,1.55-.04.57.57,1.41.51,2.07.43.05,1.04-.55,1.39.09.42.75-.82-.18-.54.58.51,1.34.67,2.26,2.06,2.7l-.54.3.6.95.53-.58c.01.37.03.75.2,1.09.93,1.81,1.89,4.36,3.94,4.88l-.54.43c.25.59,1.78,1.28,1.96,1.51.08.1.62,1.6,1.06,2.05.74.75,2.78.57,3.35,2.33.31.95-1.24-.1-1.37.33l.32.97.54-.3.05,1.11.81-.59c-.28,1.34.54,1.71.95,2.75l-1.13-.37c.35.33,2.12,3.71,2.63,3.1l-.06-1.67c.65.09.45.93.76,1.35.39.54,1.28.31.91,1.68l.73,1.62c-.06-.42.13-.87.08-1.26-.04-.35-1.13-2.26.06-2.09-.03.58.23,1.35.62,1.75.25.26,1.48-.19,1.04,1.54.73.07,1.39.49,1.32,1.34l.54-.31.4,2.77.22-1.4c1.29.68.95,2.94,1.92,3.74.16.13.58-.05.75.24.28.48.04,1.4.36,1.87s.81.13.99.38c.19.27.09,2.05.23,2.52,1.7-.51,2.13.37,2.94,1.47.09.13.47.15.59.33s-.11.55-.09.56c.23.13.91-.24,1.71.33.97.7.5,2.12,2,2.05-.48.67.7.52.36,1.64l.38-.85.18,1.11.84-.03-.26.56h.81s.09,1.36.09,1.36c1.14.18-.08-1.32.2-1.96.36-.39,2.34.61,2.29,1.3l.55-.02.25-.56c-.23,1.12.61.7,1.03,1.06,2.14,1.85.69,1.61,3.93,2.38.32.08,0,.82,1.05.22l-.26.56c1.69.1,3.22,1.81,3.49,3.49.6,0,.84-.67,1.48-.63.15,0,.17.43.4.53.88.38,1.99.88,2.87.47-.52,1.27,1.88,1.89,1.81,3.27.35-.05.77-1.45,1.35-.89.2.19-.17.92-.32,1.19-.27.49-.69.39-.72.8,1.15.24.5-.78,1.37-.61l.08.79.79.02-.25.84,1.67-.07c-.55-.75-.7-1.58-1.71-1.05l.48-1.97.32,1.1c1.6-.28.2-.85.35-1.68l1.27.51-.51,1.13,1.91-.91.05,1.12c.69.16,1.62-.4,2.21-.23.86.25,1.61,1.77,2.69,1.15l.19.83.67-.59c.71.6,1.43,1.18,2.42,1.02l-.26.56,1.38-.33-.24.84c1.13-.65,1.18.19,1.89.43s1.41-.5,1.23.84l.39-.57,1.01.8-.32-1.1,1.42.78.24-.85.64,1.92.38-.85c.41.69,1.17.35,1.63.51.26.09.23.47.41.52,1.17.29.98-1.5,1.65-.04,1.55-.98,2.3.51,3.22.83.41.14.99-.22,1.67-.11.96.16,3.79,2.08,4.52,1.66-.27-.37-.17-.93.38-.85s.07.96.46,1.24c.54.4,1.19.09,1.76.15.23.03.48.34.7.36.96.1,1.35-.81,2.22.83l.79-1.15c.94.62,1.39,1.43,2.7,1.29l-.24.84c.06.07,1.23-1.41,1.4.22l-.82.31c.91-.54,1.86.22,2.36.21.26,0,.09-.55.13-.58-.37.14-.96-.54-1.41-.51.29-.72.47-1.53,1.2-1.44,1.25.15.58,1.82.21,1.95ZM285.57,245.96c-.1,0-.58-1.48-.27.17,0,.78,2.53.72,2.47.23l-.6-.95c-.99.19-.16.65-1.6.55ZM284.7,246.34c-1.23-.59-1.21.39-2.22,1.03-.8.51-1.87.49-2.41,1.52.88.73,2.01-.13,2.05-1.07l1.25.24-.53.57,1.39-.06c-.49-.84.04-1.51.47-2.24Z"/>
    <path class="cls-1" d="M113.49,113.9c-.02-.18-.45-.57-.31-.96.49-.14.2.47.3.54.38.28.84-.47.81-.87l1.13.51.21-1.96.85.52c-.56-.96.78-1.45.77-1.56,0-.18-1.11-.57-.06-1.53l-.58-.54.84.24c-.64-1.05.35-1.5.79-2.47.26-.06.9.32,1.07.17.59-.52-1-.45-.6-1.09l1.09.22c.05-.7.91-1.36,1.02-1.91.12-.63-.4-1.26-.02-2.07.53-1.14,2.2-1.81,2.33-4.11.05-.81-.61-1.89-.54-2.48.06-.52,1.77-1.54,1.05-2.4l-1.33,1.72-.17-.68c.03-.11.42-.11.52-.38.77-2.13,1.26-4.41,1.99-6.56-2.56,3.29-4.53,7.29-6.57,10.95-1.45,2.59-5.15,8.11-5.81,10.72-.17.67-.01,1.27-.09,1.93l-.77.36-.17-.83c-.98.62-.14,1.87-1.4,1.77l-.25,2.2c-.57.02-.8-1.01-.88-1.08-.65-.5-.38.71-.8.59.18-.58-1.08-1.85-1.46-1.61-.06.04.71.68-.11.56-.5-1.39-1.61-.48-1.59-1.33l-.26.57c-.36-.51-1.07-.2-1.11-.25-.07-.1-.69-2.17-.68-2.29.01-.11.86-.39.53-1.04l1.68.21-.31-.54c1.03.16,1.3-1.17,1.88-1.9.71-.9.9.01.47-2.1l-1.12-.09,2.39-2.89c.04-.89-.8.43-.58-.67l1.63-.9c-.57-.11-.86.34-1.29.51-.49.19-.52-.68-1.01.97-.89-.69-.32-1.45-.12-2.21.08-.33-.23-1.48.58-.04l1.22-.89-.06-.52-.54-.15.04-.51,1.55-1.92-1.37.61c-.16-1.17.37-1.22,1.35-.89-.59-1.98,1.9-2.99,2.04-4.83l.84.25c-.28-.86.47-.87.74-1.32,1.37-2.24,4.96-8.99,4.82-11.38-.03-.54-.83-1.48-.32-2.58l-1.9,1.19c1.32-1.34.31-2.37.59-3.87.43-2.31,3.45-6.68,4.58-8.92s1.98-5.25,3.39-7.32c1.52-2.23,1.92-.81,3.3-.73.36.02.75-.29,1.06-.25,1.06.13,5.5,6.37,6.34,7.62s1.5,2.95,2.49,4.15c.07.09.32.08.46.07v.27c-2.4,1.12,1.17,1.82,1.43,2.24.05.08.52,1.69.55,1.89.35,2.3-.65,3.57-.74,5.46-.03.7.22.23.55.1l-.21,1.68,1.96.21-.26.56,1,.22.15-.48,1.07.17-.1.58c.59-.8,1.1-.24,1.62-.92l.3.55.56-.02c.41-1.37,1.81-1.09,2.71-2.07l.31.57.95-.34c-.13.44-.95.84-1.17,1.15-.74,1.02,1.71-.29,1.01,1.64l.82-.31c-.6.73-.44,1.04.07,1.81l-.54.15.32,1.1c.61-.26,1.08-.99,1.66-.2-.61.04-.42.84-.7,1.01-.43.27-1.95.18-2.57.65l1.18-3.26c-.5-.25-.73-1.29-.9-1.43-.26-.21-.99.27-.79-.87-2.15,1.79-5.87.1-4.58,4.09-.97-.48-.1-1.63-1.54-1.52-.98.07-.53.58-.69,1.33l1.36-.61c.62,1.56-.28,3.4-.29,4.66,0,.84.92,2.15.34,3.43l.65-1.13c1.49,1.38.24,3.05.31,4.57.11,2.2.79,3.23.53,5.58-.1.89.37,2.5-1.03,2.67.03-1.25.22-3.09.08-4.28-.03-.29-.21-1.54-.59-1.55.09,1.25-.23,3.12-.07,4.29.12.87.67,1.74.75,2.51.05.42-.11,5.18-.25,5.42-.05.09-.52.13-.64.33-.36.59.11,1.18.11,1.77-.02,3.04-.28,6.08-.09,9.11l-1.16-1.35.07,1.95c-.31.46-.68-2.05-.66-2.31.01-.15.92-.29.53-1.03l-.53.58-.04-.83-.67.58-1.01-.79c.13.68,1.1,1.42.08,1.95l-.66-2.05c.83-.37.76-1.3.76-2.14l-.79,1.29-1.66.2.24-.84c-.55-.45-2.46,2.06-1.99,2.59l.94-.87.06.82c.46-.23.8-.08,1.04.39-.36.57-.4,1.38-.69,1.92-.19.36-1,.62-1.02,1.48-.05,2.88,2.52,1.93,3.06,3.37.53,1.41-.83,2.4-1.71,3.15-.35-2.34-1.62-5.07-1.94-7.34-.19-1.35-.22-2.26-.44-3.59-.34-2.07.42-5,.54-7.12l.45.82c.42-.22.52-.91.71-1.08.06-.05.34.17.44.11.39-.26.65-1.1,1.72-.54l.18-2.52-.95.59c-.48-.54.02-1.09.65-1.15l-.6-1.08.84-.04v-6.97s-.54.71-.54.71c.37-1.03-.09-1.88-.12-2.77-.08-2.28.15-5.89.95-7.99.41-1.06,1.26-1.67,1.67-2.48.58-1.14-.42-1.64-.37-2.86l-.96.02.12-.56c-.77-.32-.82.57-.98.59-.65.08-1.69-.61-1.47.9l-1.13-.51.03.84-.57-.53-.22,1.54c.85.54,1.58-.23,1.9.61l2.89.73-1.21.07c-.05.58-2.13.84-1.86.06-.37.63-1.2.35-1.31.41s-1.62,1.74-1.68,1.85c-.16.28.04.67,0,.78-.08.21-.71.07-.47.85.03.11.56.09.59.29.07.46-.32,1.39.07,2.05l-.56-.12v.93s-1.06.37-1.06.37c-.12.72.2.41.58.67-.73.25-1.46,1.98-1.51,2.64-.05.74.94,1.25.18,2.59-.16.27-.64.07-.83.27-.43.45-.8,3.11-1.01,3.96-.31,1.26-1.35,2.33-.48,3.65l-1.39-.22-1.83,6.77c-.59.61-.42.17-.33-.31.27-1.44.85-2.63.29-4.16-1.55.76.55-1.45.2-1.96l-.52.86-.56-.26c-.18.21.16,1.68-.78,1.42-.19-.21.65-2.2.72-2.69.08-.58.09-.8-.57-.66-.26,1.42-.81,3.19-1.36,4.51-.22.53-1.84,3.78-2.04,4.02-.45.52-1.02.46-1.2.62-.05.04.15.4.07.51-.89,1.27-4.86,2.36-6.08,3.87-.13-1.52-.03-3.08-.18-4.59Z"/>
    <path class="cls-1" d="M193.22,176.38l1.04,1.35.25-.57c1.92.45,2.13,2.69,2.91,2.95.5-1.17,1.23-.69.97.5l-.79.33c.37.05.76.23,1.07.43,1.75,1.12,3.23,2.22,5.09,3.35.33.2.66.83.95.94.68.25,1.46-.02,2.16.5l.67-.59-.22,1.4.55-.16c-.39-.28-.22-.96.1-.98.64-.04.18,1.39.21,1.66l.26-.57.72.53c.24-.59.22-.66.95-.59l-.11.56,2.33.22-.07.54c1.16.4,2.76,1.87,3.06,3.21,1.57-1.03-.44-1.01-.22-1.94,1.14.43,1.11,1.06,1.07,2.19l.39-.58.72.53.24-.85c.66,1.31-.33.71-.77,1.42,2.53.03,3.84.54,4.31,3.18l1.49-1.18.2.48.5-.23-.21,1.68c.36.15.27-1.2.81-.59s-.9.93-.5,1.41l.56-.15.3.68.65-1.14c.17-.09.09.99.72.53.17-.13-.98-1.1.53-.85l-.12.85c1.14.43,2,.77,2.19,2.13l.23-1.12,1.68.21-.2,1.37,1.21.28.28-.59c.75.96.65,2,2.14,1.31-1.05,1.43-.28,1.57.56.26-.03.16,0,.34.14.44,1.94,1.33,3.76,2.1,6,2.72.16.04.14.94,1.25.17l.35,1.66.67-.58,1.18,1.34.81-.59c.51,1.15,2.31,1.69,2.81.44.37.47,1.47,1,1.25-.05-1.11.03-1.58-.24-2.27-1.03l.32,1.1-.59-.81-.55.02-.24.85c-.08-1.41-1.2-1.85-2.33-2.41l-.26.57-.3-.54-.26.56c-.65-.89-1.65-2.45-2.86-1.83l-.04-.84-.82.32-.04-.84c-1.24.54-1.56-.37-2.27-1.16,1.17-.65,2.27,1.22,2.92,1.51.5.22,3.39.83,3.54.94.15.13.07.74.35.92.57.37,1.84-.39,1.75,1.17,2.09-.46,4.49,1.3,6.48,1.97l-.12.56-1.23.6c1.21.93,2.67-.03,3.48-.02.23,0,3.97,1.79,4.24,1.97.6.41.71,1.22.8,1.89l.82-.31-.31-.82c.53-.05,1.22-.13,1.41.5l-.54.58h.8s.21.8.21.8c.23.09-.09-.52.51-.61.27-.04,2.87.03,3.17.09.84.16,1.04.39.65,1.18l.84-.03-.26.56.84-.03-.73-1.09c-.42-.24-.05-.31.24-.27.95.16,3.18.61,2.74,1.82,1.37-.76,1.7.11,2.72.39,1.13.32,3.43.35,3.76,1.3l.39-.58c1.46.78,2.52,1.5,4.05.41l.07,1.67,1.11-.04.37-1.13.62,1.37.24-.84,1.58,1.05c-.12-1.9-1.55-2.08-3.15-2.11l-.05-1.39,2.71,1.56.12-.56.46.56.94-.34c-.29-.87-.5-.94-1.42-.78l.55-.44-.02-.56-.85-.55c-.2-2.07,2.04-1.6,2.07-.04,0,.39-.73.59.33,1.23.57-.31.37-.73.5-1.06.03-.07.42-.06.42-.25,0-.37-.51-.63-.04-1.09.63-.61.41.87,1.4.09l-.79,1.14,1.38-.33-.79,1.14c.25.18,1.47-.77,1.68.21-1.06-.05-.31,1.53-.47,2.34-.04.21-.47.19-.52.39-.19.86.02,2.02-.61,3.17-.45.81-2.21,2.04-2.66,3.15-1.64-.03-3.41-.55-5.01-.6-5.29-.16-10.01,1.2-15.27.8-2.51-.19-4.97-.71-7.47-.99l9.51,4.68c.66,1.79,1.39.72,2.72,1.68.85.62-.82.21.04.82.66.47,1.26.46,1.62.71.6.41,1.36,2.05,2.67,1.76l.11-.56,2.15,1.31-1.17.86-6.63-4.17.45.81-2.24-.19.48-.37c.7.2.1-.37-.09-.48-.73-.4-1.43-.92-2.06-1.25-.51-.27-1.26-.27-1.87-.59s-2.74-2.28-3.32-1.77l-.09,1.11c-1.17-.76-2.4-1.44-3.62-2.11-1.02-.56-.53-.14-1.03-.26-.24-.06-2.63-2.82-4.31-2l.22-.52c-1.02-.43-1.9-1.09-2.88-1.61-2.36-1.24-5.3-2.01-7.83-3.2-1.68-.79-3.11-2.03-4.87-2.42-1.08-1.16,2.52.35,2.73.39.28.05.99.24.9-.25-.88-.23-2.15-.64-2.94-1.04-.32-.16-.41-.65-.67-.78-1.98-1.05-5.11-2.1-6.89-3.5-1.03-.81-.57-1.15-.64-1.19-.94-.51-3.02-.71-4.11-1.8-.52-.52-.62-1.32-1.14-1.82-.65-.63-2.34-1.25-3.19-1.92-8.34-6.51-15.94-13.07-22.73-21.34-1.21-1.47-2.22-3.13-3.54-4.53l.53-.43Z"/>
    <path class="cls-1" d="M86.79,191.81l1.74-.87c1.07.63,1.28,2.07.91,3.17-.17.5-.58.2-.59,1.09,0,1.25.57.91.64,1.15.17.69-.24,1.98.24,2.88l-.77.56c-.65-.73-1.55-.62-2.45-.99l.66,1.61c2.31-.36,3.76.53,2.87,2.99,1.09.15,1.05-1.85,1.77-2,1.38.38,2.18,1.55,1.77,2.99-.45,1.58-1.14.49-1.72.41-1.68-.24-.61,2.43.83,1.85.16.4-.06,1.65-.51,1.28l-.58-.68c.27,1.09-.52.88-1.33,1.19-.31.66.59,1.32.56,1.73-.02.3-.41.63-.38.9.02.29.65.45.51.95l-.8.05-.39,1.67c-.42.1-1.24-.95-1.3-1.21-.02-.08.91-.4.79-1.4l-.6-.31c-.05-.25.17-1.08.29-1.34.21-.43.34-.38.77-.2l-.35-1.66c-.47.36-1.18.46-1.61.79-.48.36-1.02,1.78-1.72,1.54-.57-.42-1.58-1.16-1.81-1.82-.41-1.14.25-2.77-.81-3.33l-.87,2.54c-1.32-1.25-1.92-2.33-1.14-4.14l.85.52-1.28-4.81c2.71-.97-.21-4.53,2.8-5.32-1.16-2.62-.72-3.38,2.06-3.93l.96,2.17Z"/>
    <path class="cls-1" d="M220.52,258.96l-.26.56.84-.03-.25.84.84-.03c-.27,1.2-1.26,1.24-2.21.64l-.1,1.12-1-.79.59.42-.27.96c-.67.32-.55-.55-.72-.54-.65.01-1.45.77-1.19,1.46l.83-.17-.89,2.13-.17-.7-.56-.11.09,1.65h.81c-.58.95-.88,1.95.37,2.48l.37-4.75c1.55-.14-.07,2.86,1.59,1.88l.32.55c.87-.35-.55-2.82,1.25-2.29.36.11.33.8.78.81-.12-.96-.18-1.52-.92-2.19l.81.2c-.01-.56,0-.58.57-.53-.68.94.59,1.45.36,2.32-.25.94-1.45-.16-1.91.67l.85.25-.51,1.27,1.09-.6.32,1.1-.82.17.57.78c-.11.87-2.91,2.05-3.64,1.93-.59-.1-3.83-3.2-4.64-3.65l.97-.18c-1.15-.39-2.62-3.41-3.27-1.68-.82-.51-.5-1.53-1.07-2.32l1.65-.49-.95.87c.08,1.1,1.44.31,2.01,1.04l.24-.57,1.73,1.32c.18,0,.58-2.26.93-2.5.25-.17.81.04,1.01-.13.13-.11,1.12-2.81,1.29-3.24l2.26.07Z"/>
    <path class="cls-1" d="M123.61,178.89l-.54.03.02.55c1.79-.22,1.09,2.17,1.37,3.29s1.29,1.92.83,3.04l.8-.87.06,1.39,1.1-.32c-.11.71.34,1.41.34,2.05,0,.71-.52,1.54-.43,2.26.14,1.23,1.09,4.2,1.46,5.68,1.32,5.26,3.33,10.15,5.49,15.11l-1.11.04c.25-.55-.32-2.21-.64-2.58-.28-.33-.92-.07-1.13-.59s-.03-1.5-.35-2.22c-.25-.57-.82-.15-.64-.9l.54-.16-.83-.11c-.04-2.13-1.69-4.4-2.14-6.26-.13-.54.17-1.1.09-1.59-.13-.8-.68-1.5-.6-2.36l-.54.31-.04-.84-.26.57c-.78-.17-.27-.86-.39-1.43-.3-1.4-.99-2.97-.67-4.38-.83-.24-.31.7-.94.58-.59-.11-1.59-1.04-1.05-1.62l1.02,1.07.67-.72-.84-.11.5-1.41-1.41-.11c-.55-1.62.87-2.81.72-3.59-.03-.17-.48-.11-.57-.36-.35-1.01-.17-2.27-.98-3.22l.95-.75.15.54Z"/>
    <path class="cls-1" d="M77.03,177.98l.1,2.51-1.12-.23c.1,1.95,2.33,2.11,3.08,3.78,1.23-.66.08-2.98,1.18-3.49,1.99-.91,1.79.99,3.05,1.37l.02.55c-2.05.81-.31,2.39-.37,3.79-.02.54-.71.45-.77,1.2-.05.69.76,2.32-.1,2.58-1.37.42-1.07-1.75-1.24-2.1-.26-.54-.98-.71-1.38-1.13.13,1.01,0,1.74-.73,2.53-1.18-.65-.85-1.83-1.21-2.75-.71-1.83-1.05-2.73-1.59-4.67-.17-.62-.72-1.26-.79-1.79-.02-.18,1.04-1.15.48-2.09l1.39-.06Z"/>
    <path class="cls-1" d="M101.22,202.72c-.06.09.55.6-.31.52l.59.95-1.45.97c-1.58-.89-3.3-2.78-.89-3.94l-1.14-.65,1.12.23c-.09-3.73,4.93-1.69,3.13,1.14-.29.46-.95.63-1.04.78Z"/>
    <path class="cls-1" d="M80.57,175.89c1.02.14.28-.63.37-1.17.14-.79.77-.92,1.49-.86l-.06,1.42-.98.43c.77.87,1.81-.13,2.79.03l.06,1.93c-1.55.15-1.62.02-2.33,1.47-2.86.92-2.01-2.51-2.16-2.67-.12-.12-1.89.14-1.9-1.46,0-1.85,3.11-1.01,2.71.87Z"/>
    <path class="cls-1" d="M95.92,169.41c-.24,1.47.5.96,1.16,1.5.87.71,1.06,1.52.79,2.58-.82,3.31-5.75.91-4.24-2.06l.7-.16.22-.98.84.25c.03-.58-.37-1.29.51-1.14Z"/>
    <path class="cls-1" d="M209.96,227.99c.75.71.7,1.35,1.01,1.65.76.74,3.86.99,3.77,3.32-1.08.21-2.36-.23-3.27-.82s-1.2-1.81-1.75-2.31c-.9-.82-3.07-.92-2.76-2.97,1.26-.31,2.12.29,2.99,1.12Z"/>
    <path class="cls-1" d="M97.46,195.93c.6.59.98,2.19.63,2.96-1.88,1.81-3.14.64-4.64-.79-.16-.86.07-.73.82-.73-.49-1.87,1.78-2.83,3.2-1.44Z"/>
    <path class="cls-1" d="M86.42,149.9c-1.39,1.19-3.09-.41-3.05-1.84.02-.81.68-1.62.17-2.42.74.15,1.64-.48,2.3-.33,1.74.39,1.87,3.49.58,4.59Z"/>
    <path class="cls-1" d="M87.43,213.77c.3.47,2.38,1.05,3.02,1.09.36.8.38,2.09-.4,2.63-.21.15-2.68-.55-2.84-.79l-.11-2.44c-.14-.55-1.8,0-1.46-2.2.11-.7.95-.56.8-1.36.41-.83,1.1.83,1.15,1.32.06.57-.33,1.46-.16,1.74Z"/>
    <path class="cls-1" d="M149.53,146.35c1.85-.63,4.1,4.08,2.07,5.16-2.77.94-2.95-4.86-2.07-5.16Z"/>
    <path class="cls-1" d="M163.38,176.19l-.18,1.95c1.92-.14,3.85,3.21,2.26,4.66-2.61-.91-2.16-2.59-2.89-4.42-.29-.74-1.39-.99-.85-2.12.91.17.86.77,1.67-.07Z"/>
    <path class="cls-1" d="M137.14,94.06c-.12.53-.3,1.24-.45,2.11-.23,1.34-1.09,2.69-.61,4.13l-.84-.24.49.67-1.29,7.17c-.06-1.51,0-3.07.12-4.58.11-1.33.54-2.97.65-4.22.06-.69-.2-1.49-.09-2.18.04-.24,1.19-.92,1.28-1.27.16-.61-.2-1.35.25-1.93l-.67.45c-1.17-.55-.76-1.45-.85-1.59-.05-.08-.66.07-.49-.44.32-.92,1.05,0,1.26-.01.36-.01.54-1.06.99.21.07.2.29,1.59.25,1.73Z"/>
    <path class="cls-1" d="M280.96,236.73l.26-.57c.55,1.48,4.02,1.12,4.75,2.4.18.31.03.8.17.97.12.14,1.88.35,1.68,1.38l-1.57-.77.73.8c-1.62.45-2.95-2.14-3.94-2.65-.71-.36-1.67.38-2.34-.87l.54-.44c-.83-.02-2.05-.09-2.66-.73-.09-.1.09-.43.02-.51-.19-.22-1.21-.33-.65-.87l3,1.83Z"/>
    <path class="cls-1" d="M82.55,135.09c.14.14-.06,1.58.08,2.03.07.24.58.24.8.63.54.93.42,1.84-.67,2.23-2.79.99-5.17-4.24-.42-3.21l-.61-1.22.82-.46Z"/>
    <path class="cls-1" d="M83.31,141.53c.92,1.47-.71,1.37-1.18,1.74-.31.24-1.42,1.54-1.12,1.99-1.41.88-.46-.57-.62-.84-.03-.05-.54-.18-.78-.47-2.33-2.8,3.09-3.41,3.7-2.43Z"/>
    <path class="cls-1" d="M95.68,143.17c-3.45,3.13-5.59-2.14-2.39-2.9,1.37-.33,2.27,1.82,2.39,2.9Z"/>
    <path class="cls-1" d="M241.38,229.95l.38-.85.98.25-.82.31,1,.53.16-.52.67.2.05,1.68.12-.56.85.39-.78,1.56c-.67-.16-.58-1.39-.63-1.92-.51-.02-.13.63-.51,1-.46.44-1.38.38-1.95.21l.23-1.12-1.35.89-.19-1.11c.52-.85.43.92.99.24.63-.77-1.46-1.1-1.13-1.86.02-.05.77-.17.47-.9,1.11-.18,1.51.63,1.46,1.61Z"/>
    <path class="cls-1" d="M87.52,154.41l-.11.85-.7.02c.27,1.31-.16,2.06-1.18,2.82-1.51-.53-2.96-2.67-1.2-3.8,1.36-.88,1.84.21,3.18.12Z"/>
    <path class="cls-1" d="M88.41,129.9c.9,1-.28,1.75-.37,2.59-1.55-.33-.98.95-2.49.8l.33,1.38c-.98.31-.41-.93-.6-1.09-1.32.4-2.67-.76-1.46-1.74,1.44-1.17,1.31.29,2.39.29.06,0,.25-.84.94-.58-.75-.93.33-2.68,1.26-1.64Z"/>
    <path class="cls-1" d="M87.4,174.89c1.73.93,1.22,5.58-1.15,3.7-1.57-1.25-.74-4.72,1.15-3.7Z"/>
    <path class="cls-1" d="M73.38,163.35c-.63-1.76.39-3.49.35-5.3l1.1-.06c-.71-.74-.68-1.5-.66-2.48,1.92-.25,2.37,1.8.66,2.64,1.48,1.69.7,2.68.34,4.59l-1.8.62Z"/>
    <path class="cls-1" d="M105.04,219.33c2.2.83,2.85,2.33.94,4.03-2.36-.19-3.34-2.95-.94-4.03Z"/>
    <path class="cls-1" d="M112.11,231.47c-.08-.04-.84-1.35-.88-1.52-.44-1.63.39-2.77,2.1-2.27,1.37.4,1.47,3.01.14,3.61-.06.03-1.3.21-1.36.18Z"/>
    <path class="cls-1" d="M115.52,186.81c.23.37-.04,1.15.14,1.32l.81-.02c.27.72-.39.48-.47.71-.39,1.1.92,1.87,1.94,1.19-.06.73-1.08.73-1.3.93-.06.05.28.62-.17.8-.63-.19-.88-.68-1.53-.22-.12-.63.08-1.47-.09-2.04-.06-.21-.56-.15-.57-.32-.04-.58.41-1.49-.09-2.35l-1.1.32.81-.59c.05-.05-1.17-1.2-.19-1.38.64-.12.71.86,1.01,1.23.21.26.73.3.81.42Z"/>
    <path class="cls-1" d="M96.1,134.72c-.63,1.08-1.3.74-2.39.91-2.59-4.24,4.66-4.81,2.39-.91Z"/>
    <path class="cls-1" d="M121.41,255.69c-.58-.03-.64,0-.53.58l1.1-.2c.94.4.24,1.41.35,1.53l.82-.31c-1.07.92.87,1.54-.46,2.25-.07-.65-.12-1.31-.84-1.41l-.21-.5c-.23.22-.47.54-.55.85-.2.75.52,1.45-.19,1.41l-1.65-2.57c.04-.99,1.36-.75,1.06-1.73l-.55.16.38-.82,1.29.75Z"/>
    <path class="cls-1" d="M247.66,233.6l.84-.03-.81.73c.66,1.33,2.1,1.3,2.61,2.54h-.99s-.16-.79-.16-.79c-1.41,2.02-1.79.29-1.46-1.31l-2.68-1.02.23-1.42.52-.28,2.02.45-.12,1.13Z"/>
    <path class="cls-1" d="M119.91,240.62c-1.2,1.11-3.31-.44-3.02-1.83.6-2.95,4.55-.64,3.02,1.83Z"/>
    <path class="cls-1" d="M200.47,209.5c-.56-.88.02-2.38,1.09-2.66,2.32.01,3.14,3.93.48,3.44-.19-.04-1.52-.71-1.57-.78Z"/>
    <path class="cls-1" d="M84.37,210.71c.15.09.41.44.62.57-.38,1.06.47,2.19.05,3.19-.28.67-1.19.67-.75,1.99l-1.64-5.04.13-1.32c.48.32,1.14.34,1.59.61Z"/>
    <path class="cls-1" d="M201.27,222.58c.34.17.95-.06,1.42.06.74.19,3,2.11,2.27,2.92-.86.12-1.91-.28-2.55-.86-.54-.48-.62-1.08-.86-1.33-.18-.19-1.42-.6-1.61-.77-.84-.77-1.11-1.84.39-1.17.55.24.79,1.08.94,1.15Z"/>
    <path class="cls-1" d="M104.4,203.82c.07.12.46.04.48.5.14,3.86-4.8,1.26-2.73-1.14,1.16-1.34,1.69-.29,2.25.65Z"/>
    <path class="cls-1" d="M117.47,131.52c1.36,1.09-.36,4.18-2.21,2.84-1.53-1.11.36-4.31,2.21-2.84Z"/>
    <path class="cls-1" d="M116.07,178.08l1.08-.6.03.83-.78.07c.04,1.53-.3,1.35-1.14,1.99-.32.25-.19.52-.21.54-.38.27-1.53-2.08-2.28-1.59l-.04-.83.79.21,1.37-1.59c.66-.28,1.07.41,1.17.96Z"/>
    <path class="cls-1" d="M186.77,197.05c.38,1.37-.71,1.22-.94,1.45-.44.46-.23,1.59-1.96,1.69l.21-.81c-1.93-.29.19-3.12,1.16-3.16.46-.02.98.76,1.53.83Z"/>
    <path class="cls-1" d="M85,169.78c-.37.41-1.87.38-2.11.1-.22-.25-.05-1.44-1.23-1.71.85-.5,1.41-.38,2.09-1.3,1.63-.39,2,2.08,1.25,2.91Z"/>
    <path class="cls-1" d="M173.03,222.1l-.87-1-.06-1.2c-1.41,2.54-1.41-1.51-2.44-1.85l-.25.57-.44-.54-.51,1.13-.02-1.35c.79-.57,1.37-.03,2.13.08.3.04.66-.15.93-.09,1.78.37,1.11,2.86,1.53,4.25Z"/>
    <path class="cls-1" d="M239,229.37c-.2.37-.74.73-.67,1.53-4.26.13-.77-1.92-.68-2.23.12-.44-1.1-1.68.88-1.51,1.86.15.98,1.27.48,2.22Z"/>
    <path class="cls-1" d="M89.83,171.95c.08.04.92,1.24.94,1.42.11,1.13-.81,2.5-2.11,2.17-.83-1.02-.86-4.66,1.17-3.59Z"/>
    <path class="cls-1" d="M87.75,135.28c.18.14,0,.54.4.41l.37-1.12.96.65c-.56.77-.22,2.84-1.38,3.01-1.58.22-1.93-3.57-1.25-3.59.05,0,.73.51.89.64Z"/>
    <path class="cls-1" d="M147.14,138.93c1.69-1.24,2.95,3.76,1.36,4.09-1.24.25-2.09-3.55-1.36-4.09Z"/>
    <path class="cls-1" d="M120.73,247.68c3.01-1.06,2.56,4.18-.17,2.69-1.14-.62-.86-2.32.17-2.69Z"/>
    <path class="cls-1" d="M128.43,250.7c.82,1.01.35,3.09-1.05,3.01-2.44-.13-1.66-3.88,1.05-3.01Z"/>
    <path class="cls-1" d="M105.61,212.38c.28.15.5.57.98.53-1.04,4.36-4.34,2.15-2.27-1.16.41.25.87.41,1.29.63Z"/>
    <path class="cls-1" d="M78.79,171.13c-.63-.68-.22-2.58.8-2.75,1.67-.21,2.22,2.84.41,3.35-.23,0-1.04-.42-1.2-.6Z"/>
    <path class="cls-1" d="M77.88,145.67c1.65,1.88-.75,3.96-2.02,1.75-.9-1.57.87-3.06,2.02-1.75Z"/>
    <path class="cls-1" d="M93.7,192.46c.94.71.89,2.26-.29,2.66-2.71.92-2.15-4.51.29-2.66Z"/>
    <path class="cls-1" d="M124.95,246.62c-.06-.57-.06-.63.54-.57.05,1.03.98,3.2-.83,3.11-2.38-.13-2.09-4.05.29-2.53Z"/>
    <path class="cls-1" d="M224.4,235.29c-.99-.66-1.26-3.09,1.1-2.21,2.55.96,1.06,3.64-1.1,2.21Z"/>
    <path class="cls-1" d="M98.55,188.35c1.29,1.08-.89,2.16-.07,3.27h-.81c.02-1.37-1.82-.75-1.54-2.5.04-.26,1.27-.58,1.09-1.35.32.33,1.12.41,1.33.58Z"/>
    <path class="cls-1" d="M120.92,244.31c.13.19.16,1.65.11,1.98-.17,1.03-2.63.92-2.53-.92.08-1.5,1.25-1.58,2.42-1.06Z"/>
    <path class="cls-1" d="M167.91,214.85c.42-.03.79.16,1.09.44l.04,1.13c-3.62,3.08-4.08-1.34-1.14-1.56Z"/>
    <path class="cls-1" d="M155.05,159.51c.92-.23,2.89,3.25,1.23,3.84-1.05.22-2.32-3.09-1.23-3.84Z"/>
    <path class="cls-1" d="M134.89,259.09c.7.41,1.22,4.06-1.34,2.54-1.46-.86-.28-3.5,1.34-2.54Z"/>
    <path class="cls-1" d="M181.91,200.52c-1.22.57-3.32-1.69-2.03-2.55,1.43-.95,2.96,1.14,2.03,2.55Z"/>
    <path class="cls-1" d="M179.53,237.73l-2.93-3.5c1.65-.69,5.18,2.66,2.93,3.5Z"/>
    <path class="cls-1" d="M184.53,189.87l-.13,2.09-.72.44c-1.85.26-2.05-3.82.85-2.52Z"/>
    <path class="cls-1" d="M166.06,176.1c1.04-.09,2.51,1.9,1.62,2.58-1.72.61-3.1-1.32-1.62-2.58Z"/>
    <path class="cls-1" d="M114.51,238.6c-.29,1.05-2.64.97-2.39-.77.21-1.45,3.02-1.54,2.39.77Z"/>
    <path class="cls-1" d="M97.21,124.13c-.62-1-.3-2.41,1.06-2.19,2.35.38,1.16,2.89-1.06,2.19Z"/>
    <path class="cls-1" d="M98.21,223.87c.61.52.78.24.78,1.31-.01,1.98-2.38,1.36-2.26-.43l1.22-1.31c.21-.1.08.28.26.43Z"/>
    <path class="cls-1" d="M168.46,175.91c-.86-.79-.11-2.6,1.23-2.08,1.9.74.26,3.44-1.23,2.08Z"/>
    <path class="cls-1" d="M77.13,168c.81.41.9,2.7-.24,2.75-1.21.05-1.1-1.95-1.09-2.76.41.02.98-.17,1.34,0Z"/>
    <path class="cls-1" d="M88.32,168.56l-1.11-.08c-.45-.97-.37-1.9-.08-2.9,1.74-.18,1.67,1.73,1.19,2.98Z"/>
    <path class="cls-1" d="M97.33,129.82c1.22,1.15-.42,1.43-.82,2.21l-1.21-.58c-.83-1.32,1.22-2.4,2.03-1.63Z"/>
    <path class="cls-1" d="M94.45,216.05l.31.99,1.12-.21.02.83c-.87-.09-1.3.86-1.74,1.47-.45-.43-1.1-.77-1.05-1.48.02-.29.97-1.95,1.34-1.6Z"/>
    <path class="cls-1" d="M90.59,127.24c.32,2.39-3.09,2.51-2.5-.19l2.5.19Z"/>
    <path class="cls-1" d="M205.41,178.85c.29.14.7.18.9.34,1.67,1.31-.48,2.94-.62,2.09l-.03-.94c-1.34.82-1.08-.71-.77-1.64.26-.78.47.13.52.15Z"/>
    <path class="cls-1" d="M112.34,218.75c.06.03.99.95.94,1-.82.03-.48,1.25-1.48,1.42-.31-.48-1.49-1.07-1.28-1.67.23-.67,1.22-1.07,1.82-.75Z"/>
    <path class="cls-1" d="M116.9,240.53c-.17,1.03.32,1.91-.96,2.22-1.77.43-1.68-3.34.96-2.22Z"/>
    <path class="cls-1" d="M216.61,222.37c1.35-1.47,2.52,1.25.94,2.08-.47.15-.96.15-1.18-.37-.15-.41-.05-1.39.25-1.71Z"/>
    <path class="cls-1" d="M83.34,134.47l-1.89.36c-.88-2.45,1.93-3.84,1.89-.36Z"/>
    <path class="cls-1" d="M238.83,224.23c1.43-.53,2.18,1.68.82,2.13-1.51.5-1.88-1.73-.82-2.13Z"/>
    <path class="cls-1" d="M244.3,226.21c.16.15-.11,1.94-.26,2.3-.45,1.1-1.26.65-1.57-.08.65-1.08.11-2.48,1.83-2.22Z"/>
    <path class="cls-1" d="M197.75,219.71l-.53.58c-.32.28-3.1-1.38-2.6-2.41.37-.39,2.19.8,2.61,1.08.31.21.63.16.52.74Z"/>
    <path class="cls-1" d="M166.54,213.69l-2.09-.45c-.73-2.7,2.87-1.46,2.09.45Z"/>
    <path class="cls-1" d="M178.17,222.64c.13.22,1.75,1.7-.07,1.35-1.22-.23-1.18-1.93-1.76-2.86,1.73-.32,1.35.73,1.83,1.51Z"/>
    <path class="cls-1" d="M89.97,183.62c1.99-.75,1.71,3.52.04,2.23-.56-.43-.73-1.97-.04-2.23Z"/>
    <path class="cls-1" d="M114.45,162.39c.6.73.8,1.17.12,2.11-.8.73-1.82-.22-1.57-1.17.16-.61,1.13-.63,1.03-1.35.37-.1.23.17.42.4Z"/>
    <path class="cls-1" d="M95.82,203.77c2.13-.7,1.45,3.97-.65,1.46-.21-.56.08-1.27.65-1.46Z"/>
    <path class="cls-1" d="M191.42,247.5c.22.16.7.04.92.31l-.26.57c-.61-.91-.99.11-1.74-.11-.3-.09-1.53-1.43-1.26-1.71l1.67-.23c.38.22.4.97.68,1.18Z"/>
    <path class="cls-1" d="M79.47,197.13c-.59,1.7,1.21,2.79.74,4.71-1.83-.86-.7-2.91-1.84-4.24l1.1-.47Z"/>
    <path class="cls-1" d="M199.43,214.98c.38.45.42,1.02.43,1.57-3.75.7-2.02-3.44-.43-1.57Z"/>
    <path class="cls-1" d="M96.49,191.46l.11,1.91-1.94-.23c-.23-1.4.44-2.29,1.82-1.68Z"/>
    <path class="cls-1" d="M97.18,145.37c-2.79-.66-.95-3.8.76-1.52l-.76,1.52Z"/>
    <path class="cls-1" d="M241.47,239.15l-2.21-.81-.11-1.6c2.57-.24,1.38,1.13,2.32,2.41Z"/>
    <path class="cls-1" d="M171.24,214.46c.37.18,1.38,1.4,1,1.81-1.38.26-2.49-.81-2.59-2.12.05-.06,1.36.2,1.59.31Z"/>
    <path class="cls-1" d="M102.5,219.47c-.16.15.03.6-.49.45-2.39-1.26.18-3.21,1.04-1.71.45.79-.11.85-.55,1.26Z"/>
    <path class="cls-1" d="M149.87,155.25c1.16-.4,1.84,1.8.92,2.47-1.16.41-1.81-2.16-.92-2.47Z"/>
    <path class="cls-1" d="M209.61,216.98c-1.09.82-2.96-1.52-1.01-1.89,1.64-.31,1.43,1.57,1.01,1.89Z"/>
    <path class="cls-1" d="M161.37,174.59c-.77.87-1.75-2.09-2.28-2.33l.46-1.5c.71.24.31,1.05.68,1.72.24.43,1.68,1.51,1.14,2.11Z"/>
    <path class="cls-1" d="M188.21,198.97c.69.63.34,2.05-1.08,1.6-.4-.13-.46-.87-1.05-.75.34-.86,1.32-1.58,2.13-.84Z"/>
    <path class="cls-1" d="M109.16,227.42c-.3-2.84,3-1.57,1.51.53l-1.51-.53Z"/>
    <path class="cls-1" d="M117.3,168.9c.75.72.15,2.7-1.27,1.82-1.04-.65.27-2.78,1.27-1.82Z"/>
    <path class="cls-1" d="M75.36,171.36l.25,2.24-1.53.32c-.16-.73.33-3.09,1.28-2.55Z"/>
    <path class="cls-1" d="M215.4,186.92c-.5.1-.84-.02-1.28-.2-.66-.27-2.78-1.37-2.16-2.16.57-.09,3.88,2.01,3.44,2.37Z"/>
    <path class="cls-1" d="M234.28,199c-1.56-.16-2.81-1.18-4.27-1.86-.33-.16-.84.22-.86-1,.33-.35,2.65,1.37,3.16,1.65.59.33,1.63.2,1.97,1.2Z"/>
    <path class="cls-1" d="M79,192.98c.13.08.71,1.98.71,2.33,0,.6-1.02.29-.27,1.12l-.55.16c.03-.68-1.61-4.62.11-3.61Z"/>
    <path class="cls-1" d="M201.3,248.04c1.64-.59,1.98,1.99.89,2.11-.75.08-1.94-1.74-.89-2.11Z"/>
    <path class="cls-1" d="M246.64,235.88c-.08,2.31-1.27,1.98-2.49.51.78-.49,1.59-.86,2.49-.51Z"/>
    <path class="cls-1" d="M112.35,182.7l1.39-.05c.11,2.27-.98,1.33-1.72.1l-.77.27-.05-1.11.71.25.09-1.11c.71,0,.28,1.6.34,1.66Z"/>
    <path class="cls-1" d="M225.34,193.01c.24.19.19.68.35.86.22.26,1.1.06,1.18.96-.5.16-.68-.37-1.06-.45-.45-.1-1.28.09-1.44-.05-.07-.06-.55-1.34-.93-1.59.44,0,1.6.03,1.9.26Z"/>
    <path class="cls-1" d="M182.04,189.38l-1.56-.2-.19-1.68c1.34-.09,1.91.56,1.75,1.88Z"/>
    <path class="cls-1" d="M92.29,120.46c-1.18.52-1.81-.21-2.55-1l1.12.23-.86-.53c.64-1.34,2.28.34,2.28,1.3Z"/>
    <path class="cls-1" d="M256.61,234.66c.4.26.37,1.93-.6,1.84-2.08-.19-.41-2.5.6-1.84Z"/>
    <path class="cls-1" d="M87.76,223.01l-.18-1.1-.97.31c-1.08-3.37.91-2.06,1.55-.07.16.49.1.68-.4.86Z"/>
    <path class="cls-1" d="M119.43,116.03c-.12,1.38-1.71,1.52-2.71,1.78.15-1.28,1.57-1.9,2.71-1.78Z"/>
    <path class="cls-1" d="M110.79,150.96l.03.83-.84-.24c.67,2.8-.86.24-1.94.35-.51-.39-.16-.42.32-.5.81-.14,1.63-.21,2.43-.44Z"/>
    <path class="cls-1" d="M168,186.88c-.23.31-1.63-1.22-1.87-1.32l.24-1.13c.79-.26,1.72,2.32,1.63,2.44Z"/>
    <path class="cls-1" d="M230.28,227.68c1.35.06,1.09,2.62-.46,1.59-.98-.65-.19-1.62.46-1.59Z"/>
    <path class="cls-1" d="M229.04,221.24c0,1.34.15,2.26-1.58,2.29l-.19-.84,1.51-1.03-.85-.38,1.11-.05Z"/>
    <path class="cls-1" d="M244.59,297.09l.14,2.45c-1.41-.3-1.28-1.59-.94-2.75l.8.3Z"/>
    <path class="cls-1" d="M77.35,188.09c.22.35.77,3.02-.1,2.15-.09-1.5-1.44-2.18-1.27-3.85.64.15.48.88.78,1.35.12.18.51.22.6.35Z"/>
    <path class="cls-1" d="M251.72,203.34c.05.03.3.74.28.9-.24.68-.89.88-1.58.79l.07-1.39c.22-.3.99-.46,1.23-.3Z"/>
    <path class="cls-1" d="M217.71,295.14c.15.08.22.44.42.55.26.15,2.43.99,1.98,1.5-.56-.24-4.46-2-4-2.63.47.48,1.21.37,1.61.58Z"/>
    <path class="cls-1" d="M111.64,234.61l-.68,1.4c-.82-.06-1.08-.92-1-1.61l1.68.21Z"/>
    <polygon class="cls-1" points="249.03 226.02 248.94 226.88 247.42 227.48 247.35 225.81 249.03 226.02"/>
    <path class="cls-1" d="M111.18,224.8c-.03.09-.78.79-1.15.66-1.49-.55.53-2.86,1.22-1.01.1.17-.04.26-.07.35Z"/>
    <path class="cls-1" d="M165.04,210.42c-.15.14-2.8-.89-2.3-1.86,1.49-.34,1.61.91,2.3,1.86Z"/>
    <path class="cls-1" d="M89.23,217.93c-.69.78-.33,1.17-.19,2.09-.04,1.02-3.13-1.77.19-2.09Z"/>
    <path class="cls-1" d="M103.26,213.18l-1.39.05.22-1.68c1.19-.26,1.22.72,1.18,1.62Z"/>
    <path class="cls-1" d="M241.57,198.37c.2.32,1.85.4-.14,1.45-.85-.46-.16-1.06-.19-1.51,0-.09-1.58-.31.22-1,.04.34-.08.77.1,1.06Z"/>
    <path class="cls-1" d="M73.27,149.85l-.67.98c.05-.49-.92-2.12.22-1.4l.21-1.96c.83.34.63,1.77.25,2.38Z"/>
    <path class="cls-1" d="M86.19,128.52c-.32.37-1.11-.37-1.3-.62-.11-.14-1.03-1.56-.32-1.54.2,0,2.17,1.52,1.62,2.16Z"/>
    <path class="cls-1" d="M190.58,200.75c.8.57-1.02,2.33-1.31,2-.45-.76.56-2.54,1.31-2Z"/>
    <path class="cls-1" d="M144.84,269.81l-2.23.09-.04-1.11c.16-.18,2.51.11,2.27,1.02Z"/>
    <path class="cls-1" d="M222.05,234.63c-.9.15-1.81-.67-1.73-1.6,1.18-.21,1.85.39,1.73,1.6Z"/>
    <path class="cls-1" d="M77.29,163.46c-.28-.19-.66-1.93.58-1.65,1.57.35.13,2.13-.58,1.65Z"/>
    <path class="cls-1" d="M110.13,155.18l-.52.42.3.98.82-.45-.65,1.27c-1.2-.32-1.57-2.29.05-2.22Z"/>
    <path class="cls-1" d="M92.61,165.94c1.02-.36,1.71.66,1,1.2-1.06.81-2.07-.82-1-1.2Z"/>
    <path class="cls-1" d="M169.91,185.97c.17.11.6,1.87-.06,1.95-1.28.14-1.24-2.74.06-1.95Z"/>
    <path class="cls-1" d="M142.6,219.93c-.77-.85-.6-2.29.63-1.4.8.58.47,1.63-.63,1.4Z"/>
    <path class="cls-1" d="M175.46,199.13l1.22,2.46c-.22.29-1.44-.99-1.51-1.11-.2-.37-.26-.77-.25-1.18l.55-.16Z"/>
    <g>
      <path class="cls-1" d="M157.9,253.93l.65-.23.44.62-.84-.11.33,1.38-.57-.53c.13.6-.28.61-.82.59l.59.81-1.94.08c-.19-.77.26-.55.81-.59.07-.65-.89-1.16-.9-1.24-.19-1.1,2.04-2.28,2.25-.78Z"/>
      <path class="cls-1" d="M94.13,230.34c.32.5.05,1.43-.43,1.78l.59.28c-.52.51.42,2.23-.35,2.07-.48-.01-1.21-1.18-1.21-1.48,0-.23.5-.55.42-1.11-.09-.67-.85-.85-.09-2.11.22.16,1.02.48,1.07.57Z"/>
      <path class="cls-1" d="M161.15,259.39c1.05-.47,2.98-.81,2.8.71-.65-.25-.88.61-.96.61-.25.01-.57-.27-.81-.27s.02.93-.69.6c.52-.97-.36-1.13-.89-1.8l.51-.7.04.84Z"/>
      <path class="cls-1" d="M109.28,175.85l-2.21-.5c-.39-.96.17-1.2.45-1.93l.57.53.52-.86.67,2.76Z"/>
      <path class="cls-1" d="M104.53,173.75c.03.06.64.01.53.45l-.54,1.01-.05-1.11-.81.59c-.2-.84.62-1.98,1.29-2.56.2.56-.7,1.11-.42,1.63Z"/>
      <path class="cls-1" d="M139.12,233.01c.3.31,1.69,3.3.21,2.3.42-1.15-1.09-1.61-1.23-1.79-.31-.41.43-1.12,1.02-.52Z"/>
      <path class="cls-1" d="M284.7,246.34c-.42.73-.96,1.4-.47,2.24l-1.39.06.53-.57-1.25-.24c-.04.94-1.17,1.79-2.05,1.07.55-1.04,1.61-1.01,2.41-1.52,1.01-.64.99-1.63,2.22-1.03Z"/>
      <path class="cls-1" d="M285.57,245.96c1.44.1.61-.36,1.6-.55l.6.95c.07.49-2.46.56-2.47-.23-.3-1.66.18-.18.27-.17Z"/>
    </g>
  </g>
</svg>